<?xml version="1.0" standalone="no"?>
<!DOCTYPE svg PUBLIC "-//W3C//DTD SVG 20010904//EN"
 "http://www.w3.org/TR/2001/REC-SVG-20010904/DTD/svg10.dtd">
<svg version="1.0" xmlns="http://www.w3.org/2000/svg"
 width="8740.000000pt" height="12756.000000pt" viewBox="0 0 8740.000000 12756.000000"
 preserveAspectRatio="xMidYMid meet">

<g transform="translate(0.000000,12756.000000) scale(0.100000,-0.100000)"
fill="#000000" stroke="none">
<path d="M41880 95533 c-525 -1117 -1003 -2359 -1384 -3596 -46 -150 -90 -292
-97 -317 l-12 -45 -8 35 c-4 19 -24 164 -44 322 l-37 287 100 298 c237 707
531 1492 766 2042 36 85 64 156 62 158 -9 9 -371 -788 -538 -1187 -84 -199
-282 -695 -376 -940 -38 -100 -40 -103 -46 -70 -12 73 -61 612 -89 990 -2 25
-4 7 -5 -40 -2 -105 13 -427 38 -808 l20 -293 -66 -182 c-36 -100 -73 -204
-84 -232 l-18 -50 -6 35 c-4 19 -20 168 -36 330 -26 263 -38 405 -70 795 -7
92 -8 77 -4 -90 6 -242 29 -659 53 -968 l19 -229 -103 -311 c-57 -172 -144
-447 -195 -612 -50 -164 -93 -301 -95 -303 -18 -18 -148 1123 -189 1668 -9
113 -17 223 -19 245 -9 100 -6 -163 3 -350 25 -499 71 -1083 125 -1569 l23
-209 -28 -96 -27 -96 -12 55 c-59 290 -175 1172 -221 1685 -28 326 -29 328
-24 145 13 -453 80 -1177 170 -1815 35 -244 36 -263 22 -310 l-14 -50 -13 80
c-44 284 -99 729 -94 765 4 27 2 41 -4 37 -15 -9 -93 738 -132 1263 -8 112 -8
113 -10 35 -3 -207 49 -1036 95 -1504 14 -148 12 -239 -10 -461 -2 -19 -4 -64
-5 -99 0 -35 -3 -62 -6 -59 -14 14 -131 681 -184 1053 -59 408 -114 896 -150
1320 -12 147 -13 34 -1 -185 44 -797 142 -1643 276 -2372 28 -153 34 -210 33
-315 0 -71 -4 -134 -8 -141 -4 -7 -80 136 -185 348 -135 273 -177 366 -173
387 2 15 2 22 0 16 -11 -33 -13 -28 -229 452 l-103 230 -21 220 c-12 121 -22
243 -22 270 0 32 -3 43 -7 31 -4 -11 -15 95 -25 235 -20 298 -23 322 -24 249
-2 -68 15 -482 28 -689 5 -85 9 -156 7 -157 -2 -2 -40 84 -86 192 -56 133 -80
202 -76 217 4 15 3 18 -3 9 -8 -11 -10 -11 -15 0 -192 468 -337 851 -337 891
0 136 138 1084 226 1544 63 337 31 232 -60 -197 -64 -298 -129 -649 -183 -982
-20 -131 -40 -232 -44 -225 -4 6 -22 54 -39 105 -18 51 -34 91 -36 89 -2 -1
15 -59 36 -127 l40 -125 -20 -145 c-11 -80 -31 -239 -45 -354 -13 -115 -26
-211 -28 -213 -2 -2 -37 86 -77 194 -104 285 -129 349 -130 337 0 -5 10 -39
21 -74 19 -53 20 -66 9 -84 -11 -18 -11 -19 2 -9 12 11 25 -21 92 -222 l77
-234 -21 -243 c-25 -302 -50 -708 -51 -853 -1 -163 -14 -101 -28 130 -7 110
-14 209 -16 220 -11 60 17 -697 31 -825 7 -64 -3 -59 -35 18 -42 102 -179 842
-276 1490 l-25 174 56 81 c32 45 84 117 117 161 33 43 54 76 48 72 -6 -4 -58
-70 -116 -147 -58 -77 -107 -134 -110 -127 -8 24 -55 399 -55 439 0 41 71 476
116 706 14 74 24 136 22 139 -5 4 -69 -272 -122 -531 -19 -88 -36 -153 -39
-145 -13 35 -98 909 -125 1295 -13 173 -14 50 -2 -225 14 -328 36 -664 65
-1017 l26 -301 -30 -164 c-15 -89 -41 -245 -57 -345 -15 -101 -30 -180 -33
-177 -3 3 -23 51 -43 107 -49 134 -48 116 2 -43 l41 -128 -30 -48 c-16 -27
-48 -87 -72 -134 l-42 -85 -23 135 c-120 693 -243 1728 -303 2550 -12 173 -13
36 -1 -237 28 -628 85 -1322 156 -1908 14 -115 27 -226 29 -245 2 -19 13 -100
25 -179 11 -80 18 -146 16 -148 -2 -2 -14 26 -27 63 -39 110 -32 57 10 -69
l38 -119 -51 -118 c-28 -65 -54 -114 -57 -108 -4 6 -15 48 -24 94 l-18 83 33
43 32 43 -36 -40 c-20 -22 -36 -38 -36 -35 0 3 -11 59 -25 125 -188 883 -309
1683 -395 2611 l-19 209 5 -165 c5 -193 26 -507 54 -810 10 -118 24 -334 30
-480 18 -446 63 -1056 108 -1493 15 -143 16 -173 4 -200 -7 -18 -40 -104 -73
-192 -33 -88 -74 -182 -90 -210 l-30 -50 6 90 c3 50 12 137 20 195 24 182 25
200 10 130 -19 -85 -65 -395 -65 -440 -1 -38 -43 -129 -53 -114 -3 6 -14 63
-23 127 -17 112 -17 123 0 228 10 61 15 113 12 117 -3 3 -7 -2 -7 -11 -1 -9
-2 -20 -3 -24 -2 -5 -6 -34 -11 -67 -5 -36 -11 -53 -15 -45 -7 12 -21 194 -34
434 -2 33 -1 -38 1 -157 3 -120 3 -218 0 -218 -2 0 -14 74 -27 163 -22 161
-22 166 -6 287 19 137 16 173 -4 53 -11 -70 -30 -121 -30 -82 0 7 -20 174 -45
369 -58 469 -94 828 -145 1455 -7 93 -8 79 -4 -85 12 -499 71 -1288 144 -1925
17 -148 18 -189 9 -316 -6 -81 -9 -266 -7 -412 3 -256 2 -265 -14 -234 -22 40
-33 81 -64 226 -194 917 -305 1654 -399 2646 l-14 150 5 -165 c17 -605 142
-1722 269 -2410 11 -60 -289 600 -475 1046 -174 415 -415 1035 -521 1336 -7
21 -15 36 -17 34 -6 -6 119 -388 225 -691 123 -352 260 -716 389 -1042 63
-158 102 -269 98 -280 -4 -11 -3 -14 3 -6 10 13 319 -702 316 -730 -2 -10 1
-16 6 -12 18 10 63 -110 93 -245 l29 -135 -43 -130 c-23 -71 -45 -134 -49
-138 -3 -5 -19 16 -34 45 -15 29 -52 99 -81 154 l-54 101 45 119 c24 65 43
119 41 121 -2 2 -23 -44 -46 -102 -23 -58 -45 -105 -49 -105 -9 0 -81 146 -81
164 0 8 -4 16 -9 18 -5 2 -43 73 -86 158 l-77 155 6 85 c4 46 16 145 27 218
11 74 18 137 15 140 -3 3 -6 1 -6 -4 0 -5 -13 -89 -30 -187 -16 -98 -30 -184
-30 -190 0 -27 -20 20 -20 48 0 20 -3 26 -9 17 -13 -21 -334 684 -591 1303
-147 354 -316 786 -425 1085 -37 102 -69 187 -72 190 -10 10 12 -61 99 -324
244 -737 556 -1549 868 -2256 l81 -185 -12 -80 c-20 -131 -21 -131 -65 -8 -21
61 -40 110 -42 108 -2 -2 15 -61 38 -131 l43 -127 -19 -171 c-15 -134 -19
-246 -19 -523 0 -194 -1 -353 -3 -353 -3 0 -54 105 -177 365 -29 60 -35 87
-44 190 l-10 120 3 -105 4 -105 -50 105 c-160 337 -456 1029 -635 1480 -91
231 -268 700 -298 790 -10 30 -20 50 -22 44 -2 -6 46 -160 107 -342 161 -487
344 -983 543 -1480 37 -91 63 -171 60 -179 -4 -10 -2 -14 4 -10 6 4 42 -71 88
-181 43 -103 112 -261 152 -352 l74 -165 30 -200 c33 -218 82 -472 128 -660
16 -66 28 -121 27 -122 -1 -2 -18 28 -38 65 -19 37 -64 119 -98 182 -35 63
-148 283 -252 489 -214 425 -199 371 -168 617 11 86 19 159 16 161 -2 2 -16
-76 -32 -173 l-28 -177 -28 59 c-244 512 -505 1108 -729 1668 -121 301 -307
793 -349 919 -12 38 -24 66 -26 64 -6 -5 186 -588 283 -861 172 -487 378
-1014 577 -1484 60 -139 104 -257 100 -263 -4 -7 -3 -9 3 -6 12 7 147 -288
146 -318 -1 -11 -4 -69 -8 -130 l-7 -109 -25 59 c-13 33 -47 119 -73 190 -27
72 -49 125 -50 119 0 -14 91 -283 125 -365 24 -59 25 -72 25 -253 0 -105 5
-252 10 -326 10 -135 46 -444 57 -489 4 -18 3 -22 -7 -16 -9 6 -8 -1 3 -21 8
-16 25 -81 37 -144 12 -63 34 -169 50 -235 16 -66 36 -160 45 -210 9 -49 19
-101 22 -114 11 -43 -16 -13 -52 59 -29 59 -35 81 -37 142 l-1 73 -6 -60 -6
-60 -57 131 c-53 120 -59 140 -69 245 -21 210 -28 245 -23 120 2 -63 2 -112 0
-110 -17 17 -102 510 -131 762 l-14 122 5 -122 c5 -133 4 -126 34 -353 34
-261 35 -258 -19 -105 -81 230 -61 143 39 -170 26 -82 51 -170 54 -195 5 -40
0 -33 -50 70 -129 268 -140 299 -168 495 -14 99 -30 232 -36 295 -17 193 -18
200 -14 65 3 -71 12 -197 20 -278 9 -82 14 -151 11 -153 -4 -4 -45 95 -148
359 l-69 177 39 103 c88 234 286 661 303 651 4 -3 8 0 8 6 0 7 -5 10 -12 8
-16 -6 -200 -364 -285 -555 -37 -84 -70 -150 -74 -145 -11 12 -142 393 -212
617 -519 1661 -853 3522 -1010 5615 -8 111 -6 -135 3 -325 104 -2172 462
-4236 1041 -6002 l70 -212 -41 -118 c-23 -65 -71 -219 -106 -343 -36 -123 -66
-226 -68 -227 -2 -2 -131 162 -238 304 -6 8 18 69 72 180 98 203 90 203 -15 1
-42 -82 -78 -148 -80 -148 -7 0 -303 419 -429 607 l-128 192 -64 238 c-123
458 -255 1041 -355 1563 -28 146 -51 279 -51 295 1 96 152 618 261 899 17 44
29 81 27 83 -12 12 -197 -490 -261 -708 -45 -154 -45 -153 -50 -148 -7 8 -82
468 -129 794 -82 572 -146 1130 -190 1665 -14 168 -27 328 -30 355 -10 120 6
-394 19 -620 44 -739 120 -1481 225 -2198 l39 -268 -44 -220 c-24 -121 -54
-294 -67 -385 -13 -90 -25 -164 -28 -164 -5 0 -270 496 -310 580 l-22 45 51
130 c28 71 49 131 47 133 -2 1 -26 -51 -52 -117 -27 -67 -52 -121 -56 -121 -8
0 -213 413 -355 715 -348 738 -746 1692 -988 2373 -32 89 -60 160 -62 158 -5
-5 184 -578 279 -846 273 -768 652 -1696 950 -2319 28 -58 65 -138 84 -178
l33 -72 -58 -178 c-32 -98 -66 -209 -77 -248 -15 -58 -19 -65 -25 -45 -5 18
-7 10 -8 -28 -1 -29 -16 -115 -35 -190 -19 -75 -40 -165 -47 -200 -6 -34 -14
-60 -18 -56 -3 3 -9 33 -13 67 -4 38 -5 18 -2 -50 2 -62 2 -113 -1 -113 -9 0
-33 60 -106 270 -37 107 -68 190 -68 184 -1 -14 90 -307 131 -424 l34 -95 -22
-130 c-13 -71 -23 -132 -24 -135 -3 -10 -30 88 -74 260 -87 339 -147 706 -169
1030 -3 37 -4 35 -5 -15 -7 -235 96 -934 192 -1304 14 -51 21 -90 16 -85 -34
38 -494 942 -687 1354 -373 793 -769 1753 -1031 2495 -6 17 -11 25 -11 18 -1
-20 238 -736 339 -1013 352 -972 738 -1868 1191 -2767 108 -215 196 -393 194
-395 -2 -2 -9 -115 -16 -251 -7 -136 -16 -246 -20 -245 -5 2 -109 83 -233 182
-169 134 -226 185 -230 205 -5 23 -31 264 -39 366 -3 26 -4 20 -5 -20 0 -33 5
-123 12 -200 7 -77 11 -142 10 -144 -2 -2 -35 23 -73 55 -63 51 -71 62 -72 93
-1 35 -2 35 -8 7 l-6 -29 -27 24 c-25 22 -29 37 -53 212 -15 104 -33 252 -41
330 l-13 142 5 -125 c4 -109 15 -237 40 -455 l6 -60 -28 28 c-16 15 -34 44
-41 65 l-12 37 5 -35 6 -35 -36 34 c-20 19 -38 42 -40 50 -8 27 -37 270 -45
381 -7 94 -8 98 -9 35 -1 -64 7 -177 24 -345 l7 -65 -24 20 c-21 17 -21 16 2
-10 21 -24 28 -45 34 -100 7 -76 52 -357 61 -390 11 -36 -20 3 -108 136 -113
172 -111 170 -97 139 15 -32 130 -218 180 -292 31 -46 43 -78 64 -172 92 -427
235 -875 410 -1286 31 -74 59 -138 62 -142 2 -5 2 -8 -1 -8 -20 0 -788 598
-1067 832 l-76 63 -22 140 c-24 156 -50 384 -53 460 -1 41 -2 44 -6 15 -4 -40
12 -264 34 -449 8 -68 12 -126 10 -128 -2 -2 -57 41 -122 97 -111 95 -90 71
67 -77 l65 -61 23 -140 c12 -76 38 -211 56 -298 18 -88 32 -160 30 -162 -6 -6
-195 251 -303 412 -117 175 -143 212 -102 141 90 -153 279 -437 400 -600 21
-27 40 -77 61 -155 175 -658 454 -1317 810 -1909 63 -104 71 -124 104 -260 92
-374 218 -755 369 -1115 25 -60 45 -111 43 -113 -2 -2 -40 52 -85 120 -130
196 -288 546 -413 912 -32 94 -58 166 -58 161 -2 -19 110 -369 160 -501 28
-76 49 -138 47 -140 -6 -6 -172 313 -243 465 -123 264 -267 643 -320 843 -10
37 -20 65 -22 63 -8 -8 58 -241 131 -461 187 -560 422 -1051 760 -1589 31 -49
54 -91 52 -93 -3 -4 -432 160 -469 179 -9 5 -24 23 -32 41 -13 29 -14 30 -9 5
4 -16 3 -28 -1 -28 -3 0 -89 33 -189 74 -473 193 -1013 430 -1441 636 -93 44
-165 77 -160 72 38 -36 882 -455 1292 -642 101 -46 181 -85 179 -87 -8 -8
-501 197 -512 212 -7 9 -14 12 -15 7 -8 -19 -975 405 -1321 579 -54 27 -101
49 -105 49 -41 -1 869 -454 1297 -647 80 -36 150 -71 156 -79 6 -8 13 -11 16
-9 3 3 84 -29 179 -71 198 -86 501 -215 634 -268 l90 -37 37 -84 c32 -75 35
-85 19 -85 -60 0 -810 145 -824 159 -5 5 -37 91 -72 192 -35 101 -64 179 -64
173 -1 -9 89 -306 104 -346 4 -10 4 -18 1 -18 -20 0 -518 120 -726 175 -475
125 -447 115 -509 182 -87 95 -311 377 -425 538 -233 325 -458 714 -602 1038
-26 59 -49 106 -51 104 -2 -2 14 -46 36 -98 204 -499 509 -1031 848 -1482 41
-55 73 -101 70 -103 -11 -11 -883 272 -1317 429 -392 142 -347 118 -386 201
-37 76 -39 73 -5 -11 11 -29 19 -53 18 -53 -8 0 -485 187 -697 273 -443 179
-1014 429 -1365 597 -397 190 -281 121 213 -127 592 -297 1028 -498 1612 -742
146 -61 271 -114 278 -119 8 -4 51 -87 97 -185 186 -397 451 -837 719 -1192
41 -55 71 -101 66 -103 -20 -7 -869 268 -1275 413 -883 316 -1658 638 -2620
1089 -199 94 -73 23 275 -153 1170 -593 2353 -1085 3555 -1477 l240 -78 85
-99 c707 -819 1659 -1530 2712 -2024 164 -77 193 -94 278 -167 222 -192 434
-352 685 -521 l160 -107 -55 7 c-90 10 -420 65 -485 81 -77 18 -106 17 -40 -2
71 -20 420 -90 545 -110 98 -15 112 -20 210 -78 646 -384 1461 -697 2227 -856
71 -15 114 -32 194 -76 359 -199 778 -341 1184 -401 162 -24 552 -24 708 0
305 47 590 137 826 263 72 38 87 43 102 32 9 -7 61 -51 116 -97 119 -101 326
-257 447 -337 85 -57 87 -59 60 -65 -31 -8 -279 -33 -489 -50 -194 -15 -847
-22 -1032 -11 l-161 10 -114 76 -113 76 74 -70 c40 -39 72 -72 70 -74 -2 -2
-85 5 -184 15 -529 54 -1050 164 -1530 324 -373 124 -845 338 -1142 517 -18
11 -33 17 -33 14 0 -12 314 -191 500 -285 650 -330 1306 -546 2056 -677 115
-20 219 -37 232 -38 12 -1 22 -5 22 -9 0 -5 5 -5 11 -2 12 8 207 -11 260 -25
20 -6 44 -20 55 -31 l19 -22 -32 6 c-86 18 -90 15 -12 -6 60 -17 102 -36 140
-64 343 -253 782 -494 1209 -666 145 -58 531 -186 638 -212 41 -10 70 -21 65
-25 -19 -17 -486 -100 -733 -129 -336 -41 -438 -46 -855 -45 -496 0 -752 23
-1145 99 -138 27 -171 31 -95 9 94 -26 399 -84 570 -109 803 -116 1646 -92
2442 69 166 34 175 35 248 22 41 -7 78 -16 81 -19 3 -2 -57 -41 -133 -85
-1155 -667 -2288 -1033 -3447 -1113 -197 -13 -798 -7 -954 11 -56 6 -108 10
-115 7 -12 -4 204 -30 393 -48 58 -5 238 -12 400 -16 1098 -23 2179 209 3249
696 74 34 136 61 139 61 10 0 -256 -215 -391 -316 -528 -396 -1088 -698 -1697
-917 -9 -3 -10 -6 -3 -6 19 -1 304 101 478 171 627 253 1302 657 1825 1091
130 107 127 106 95 62 -125 -170 -433 -473 -607 -596 -229 -163 -561 -360
-803 -479 -270 -131 -677 -298 -840 -345 -33 -9 -69 -22 -80 -29 -21 -14 -202
-72 -385 -125 -795 -228 -1666 -317 -2409 -246 -180 18 -227 15 -74 -4 1109
-137 2198 -18 3283 358 79 27 146 49 147 47 2 -1 -73 -41 -165 -88 -194 -101
-410 -197 -587 -264 -68 -26 -123 -49 -122 -51 5 -4 175 54 308 105 271 104
596 255 854 398 77 42 203 106 280 140 161 73 163 77 -70 -110 -531 -428
-1143 -784 -1720 -1002 -68 -26 -123 -49 -122 -51 5 -4 175 54 308 105 756
290 1449 710 2124 1288 l80 69 -43 -52 c-71 -86 -367 -387 -516 -525 -150
-140 -369 -293 -661 -464 -275 -160 -658 -344 -911 -436 -46 -17 -83 -33 -81
-35 6 -5 215 68 361 127 182 72 357 151 551 247 94 46 161 76 150 67 -52 -42
-293 -209 -407 -283 -359 -230 -731 -420 -1123 -572 -82 -32 -145 -59 -138
-59 22 0 389 137 560 210 214 91 623 300 821 419 316 189 696 460 937 665 55
47 172 141 259 208 419 320 790 658 1089 992 55 60 138 139 190 178 147 113
363 296 492 420 l120 115 210 6 c116 4 254 12 309 17 54 6 101 9 103 6 6 -6
-93 -178 -184 -323 -105 -166 -502 -589 -817 -870 -612 -547 -1271 -964 -1958
-1239 -81 -32 -145 -60 -144 -61 11 -11 428 152 651 254 525 241 1100 600
1545 968 52 43 104 85 114 94 18 15 18 13 -1 -14 -12 -16 -79 -100 -150 -185
-595 -715 -1276 -1297 -2006 -1717 -270 -155 -637 -328 -900 -423 -64 -24
-115 -45 -113 -47 5 -5 248 80 411 144 1395 549 2622 1576 3512 2940 52 80
145 207 206 282 62 75 133 163 158 196 l46 60 99 18 c209 38 505 120 711 198
90 33 120 39 244 49 78 6 143 9 146 7 2 -3 -56 -43 -129 -89 -252 -160 -435
-266 -683 -395 -99 -52 -171 -92 -160 -89 288 75 774 291 1134 505 l105 62
145 -35 c417 -100 817 -110 1194 -30 121 26 117 9 -15 -78 -781 -517 -1873
-838 -3063 -902 -38 -2 67 -2 235 0 300 3 387 9 665 39 997 111 1880 395 2537
817 l106 69 163 -15 c99 -10 264 -16 421 -16 l258 0 0 135 c0 101 -3 135 -12
135 -7 0 -62 -7 -123 -15 -60 -8 -184 -18 -275 -21 l-165 -6 55 48 c100 86
364 358 435 448 l70 88 8 -263 c5 -145 10 -266 13 -268 7 -8 163 22 309 59
424 109 875 312 1190 536 l61 43 18 131 c10 72 17 132 15 134 -2 2 -40 -7 -84
-20 -119 -35 -401 -91 -555 -110 -79 -9 -251 -18 -415 -21 l-280 -5 -95 -54
c-56 -33 -112 -73 -136 -101 l-41 -45 -6 983 c-4 541 -7 1140 -7 1330 l0 346
40 16 c53 20 53 41 1 34 l-39 -5 -6 122 c-3 66 -7 523 -9 1014 l-4 893 86 -6
c47 -3 1107 -46 2356 -96 l2270 -91 140 -136 c945 -923 2092 -1637 3435 -2139
298 -111 1058 -366 1445 -483 149 -45 273 -85 277 -89 4 -3 26 -2801 49 -6216
25 -3753 46 -6309 53 -6460 9 -198 8 -264 -2 -320 -361 -1989 -530 -3430 -549
-4685 -11 -775 42 -1349 163 -1755 70 -233 277 -744 508 -1251 l96 -211 -10
-379 c-52 -2008 -93 -3433 -175 -6059 -19 -616 -42 -1322 -50 -1569 -8 -247
-14 -450 -12 -451 1 -1 821 -12 1822 -24 1001 -11 1902 -24 2001 -27 l182 -6
46 -172 c84 -313 141 -587 183 -871 27 -187 25 -617 -4 -785 -31 -174 -66
-305 -120 -440 -421 -1066 -1670 -1561 -3258 -1294 -303 51 -589 121 -1285
312 -560 155 -937 241 -1362 312 -453 76 -762 154 -1207 305 -410 139 -782
293 -1576 650 -1076 485 -1513 659 -2065 820 -622 182 -1091 255 -2300 355
-492 40 -904 80 -912 88 -6 7 -38 4323 -32 4331 2 2 47 13 100 23 l97 18 45
-26 c66 -39 193 -164 250 -248 119 -172 190 -351 322 -810 49 -174 96 -331
104 -350 12 -28 26 -38 112 -73 368 -153 838 -257 1414 -312 567 -55 1060 -66
2345 -51 1258 14 1748 5 2315 -46 348 -31 682 -83 959 -150 l145 -34 23 27
c45 56 40 140 -14 226 -14 23 -106 121 -203 217 -411 406 -1484 1687 -2325
2775 -449 580 -1057 1401 -1431 1932 -99 141 -155 212 -167 213 -23 0 -53 16
-98 52 -20 16 -45 30 -55 30 -11 1 -107 -52 -214 -119 -849 -524 -1936 -1094
-3392 -1779 -180 -85 -331 -154 -336 -154 -6 0 -12 565 -16 1358 -4 746 -11
1582 -16 1857 -13 661 -12 2806 0 3555 11 670 30 960 91 1425 233 1774 859
2797 2294 3750 514 341 1057 641 2081 1150 l591 294 14 218 c27 423 16 1024
-27 1443 -94 931 -362 1837 -739 2496 -121 210 -294 452 -393 547 l-40 39 -45
-84 c-25 -45 -85 -166 -132 -267 -197 -422 -343 -777 -680 -1656 -467 -1219
-657 -1651 -988 -2245 -500 -897 -1065 -1682 -1881 -2613 l-191 -218 -3 293
-2 293 -30 17 -30 17 0 2237 0 2237 -174 -349 c-334 -673 -684 -1286 -1219
-2139 -941 -1499 -1210 -1999 -2077 -3851 -163 -349 -207 -434 -248 -482 -196
-229 -439 -651 -1122 -1952 -451 -858 -541 -1020 -620 -1105 -20 -22 -124
-148 -231 -280 -255 -315 -592 -719 -907 -1088 l-255 -297 -320 -252 c-293
-230 -349 -269 -646 -453 -1152 -713 -1781 -1137 -1781 -1201 0 -55 254 -26
685 80 77 19 141 33 142 32 2 -1 -106 -99 -240 -218 -411 -365 -584 -524 -818
-758 -280 -278 -354 -374 -303 -394 94 -36 358 56 1184 411 140 61 275 118
299 127 l44 17 -15 -23 c-284 -431 -376 -592 -381 -664 -2 -28 0 -29 45 -32
181 -12 767 336 1092 648 94 90 290 310 338 379 11 16 49 32 129 56 312 93
620 252 918 475 232 174 398 322 802 716 467 456 677 641 914 807 97 67 255
167 265 167 4 0 11 -17 15 -37 12 -70 96 -313 162 -471 85 -205 103 -258 103
-300 0 -32 -14 -49 -162 -196 -90 -89 -277 -258 -417 -376 -614 -518 -741
-634 -851 -770 -368 -457 -691 -753 -1165 -1070 -505 -338 -985 -581 -2308
-1170 -1371 -609 -2137 -1044 -2832 -1608 -693 -562 -1386 -1222 -2070 -1967
-310 -339 -503 -533 -960 -968 -957 -911 -1197 -1166 -1657 -1761 -270 -351
-391 -496 -531 -642 -203 -212 -412 -370 -630 -477 -265 -131 -433 -161 -983
-177 -187 -5 -393 -16 -456 -25 -409 -53 -609 -208 -813 -630 -83 -172 -150
-349 -299 -792 -135 -400 -217 -608 -291 -736 -54 -93 -71 -116 -211 -282
-550 -655 -1276 -1635 -1916 -2585 -243 -360 -339 -518 -424 -695 -198 -411
-233 -742 -115 -1095 78 -232 194 -423 403 -661 47 -52 131 -160 188 -239 125
-172 166 -221 234 -278 58 -49 118 -82 191 -105 107 -34 106 -34 180 29 128
109 252 263 502 626 220 321 319 445 503 629 226 227 404 357 691 508 l128 67
262 285 c907 984 1656 1749 1964 2008 195 163 405 315 965 697 480 328 794
594 990 840 120 150 203 289 405 674 268 511 383 670 759 1045 308 307 582
530 989 803 383 257 697 442 1520 893 1361 747 1581 891 2835 1851 425 326
674 507 937 683 663 444 1216 708 1793 856 84 21 159 39 167 39 10 0 5 -19
-20 -72 -39 -83 -65 -175 -65 -229 0 -58 34 -153 74 -208 47 -64 121 -128 323
-279 l162 -122 423 -3 423 -2 445 -182 c1374 -558 2835 -1049 3990 -1338 317
-80 751 -158 1058 -191 34 -4 62 -9 62 -13 0 -3 11 -1610 25 -3570 13 -1960
26 -3566 29 -3569 6 -5 15462 93 16305 104 l484 6 -7 82 c-77 1007 -204 4234
-237 6016 l-11 635 76 649 c42 357 76 649 74 651 -2 1 -1476 21 -3277 44
-1801 23 -3276 43 -3278 44 -1 2 6 273 17 603 98 2987 201 6645 231 8144 16
800 1 1524 -76 3725 -45 1290 -150 3993 -160 4125 -3 41 -28 3517 -55 7724
-32 4970 -53 7651 -59 7655 -5 4 -265 17 -578 29 -312 12 -2467 99 -4788 192
-2321 94 -4235 170 -4254 170 -19 0 -32 2 -30 5 3 2 222 50 488 105 l483 100
366 19 c202 11 2291 79 4642 151 2351 72 4277 134 4280 139 3 4 12 10 21 13
12 5 1655 1276 1698 1314 2 2 -1989 4 -4425 4 l-4430 0 -202 -155 c-112 -85
-207 -155 -211 -155 -5 0 -14 14 -21 30 -13 31 -24 37 -35 20 -3 -5 -15 -15
-25 -20 -18 -10 -26 2 -85 121 -304 606 -500 1233 -579 1849 -36 281 -46 678
-18 770 15 50 11 113 -10 137 -54 66 -228 81 -683 61 -340 -16 -492 -12 -550
11 -39 16 -59 35 -107 99 -30 40 -45 52 -65 52 -46 0 -110 -39 -149 -91 -21
-27 -39 -49 -41 -49 -1 0 -10 16 -19 35 -41 87 -184 194 -280 209 -49 9 -57 3
-214 -149 l-105 -101 -112 4 -112 4 -20 54 c-116 309 -356 538 -607 579 l-40
6 -64 -106 c-126 -207 -294 -405 -444 -520 -77 -59 -234 -155 -253 -155 -8 0
-10 18 -7 58 l4 57 -37 -75 -38 -75 -85 -28 c-213 -69 -434 -87 -1037 -84
l-421 2 -6 29 c-8 38 -7 318 1 384 l6 53 101 60 c220 132 553 281 856 385 85
29 150 53 144 54 -25 1 -371 -92 -494 -133 -156 -51 -342 -125 -482 -190 -54
-25 -98 -44 -98 -42 0 1 9 33 21 70 123 399 487 745 1094 1040 199 97 362 164
570 234 83 28 142 51 133 51 -38 0 -343 -84 -509 -140 -739 -248 -1235 -601
-1622 -1153 -43 -62 -81 -114 -83 -116 -2 -2 3 20 12 50 28 95 125 423 129
439 3 8 -16 -10 -42 -40 -66 -78 -264 -275 -352 -349 -55 -47 -76 -60 -81 -50
-7 12 -41 271 -65 490 l-6 57 73 59 c637 519 1513 975 2360 1228 170 51 477
129 553 141 28 4 45 9 38 11 -17 6 -306 -32 -468 -62 -839 -154 -1622 -459
-2263 -881 -78 -52 -145 -94 -148 -94 -2 0 5 19 17 43 41 80 412 440 664 643
516 416 1120 764 1796 1034 301 120 670 237 999 314 174 42 146 45 -90 11
-1016 -147 -2002 -543 -2745 -1103 -252 -190 -534 -451 -715 -660 -113 -131
-107 -136 -109 101 l-1 158 61 132 c66 145 206 409 249 472 37 53 354 373 502
508 368 332 824 669 1187 876 69 39 122 71 118 71 -12 0 -186 -79 -317 -145
-312 -156 -610 -338 -903 -552 -70 -51 -130 -93 -133 -93 -19 0 293 364 472
549 443 460 1026 920 1533 1210 69 39 122 71 119 71 -13 0 -223 -97 -348 -160
-994 -505 -1857 -1277 -2366 -2118 -110 -181 -125 -204 -130 -199 -7 6 19 234
47 417 46 307 132 679 225 982 65 210 87 263 140 327 37 43 40 49 13 24 -19
-18 -38 -33 -41 -33 -17 0 137 361 253 593 48 97 86 177 84 177 -7 0 -149
-265 -218 -409 -38 -80 -98 -212 -133 -293 -60 -143 -65 -151 -166 -265 -159
-182 -336 -406 -458 -581 -23 -34 -45 -61 -47 -59 -7 8 97 237 202 447 30 60
53 110 51 110 -3 0 -23 -34 -45 -75 -23 -41 -60 -110 -83 -152 -47 -87 -128
-259 -190 -403 -57 -134 -135 -254 -265 -407 -83 -98 -113 -128 -117 -115 -3
9 -21 87 -40 172 l-35 155 62 65 62 65 -62 -59 c-44 -42 -64 -55 -67 -45 -19
53 -171 835 -217 1115 l-22 131 37 214 c21 118 49 272 62 343 14 70 23 130 21
132 -4 4 -57 -224 -105 -456 -28 -133 -41 -148 -42 -47 0 65 165 708 326 1267
310 1077 743 2313 1128 3219 36 85 64 156 62 158 -2 2 -45 -85 -96 -194z
m-5443 -3480 c-3 -10 -5 -4 -5 12 0 17 2 24 5 18 2 -7 2 -21 0 -30z m1702
-528 c10 -27 43 -118 74 -201 32 -83 57 -161 57 -173 0 -11 4 -21 9 -21 5 0
13 -10 17 -22 3 -13 48 -129 98 -258 l93 -235 17 -215 c18 -225 51 -577 61
-645 3 -21 3 -36 -1 -33 -9 10 -98 204 -219 478 l-103 235 -16 142 c-17 153
-15 181 25 416 12 65 19 121 16 123 -2 3 -18 -64 -34 -148 l-30 -153 -8 55
c-3 30 -15 147 -25 260 -23 266 -25 182 -3 -193 12 -207 14 -300 6 -308 -10
-10 -67 121 -231 532 l-70 175 14 180 c18 238 43 501 50 544 5 31 17 3 96
-225 49 -143 97 -282 107 -310z m2141 300 c12 -115 27 -263 35 -329 l15 -118
-65 -236 c-36 -129 -66 -237 -69 -239 -4 -4 -13 54 -61 405 l-36 263 71 232
c39 128 73 239 77 247 9 21 9 17 33 -225z m-3736 -480 c20 -121 48 -281 62
-355 14 -74 27 -146 30 -160 2 -14 11 -62 20 -106 l16 -82 -27 -41 c-15 -23
-31 -41 -35 -41 -4 0 -12 42 -18 93 -6 50 -18 137 -26 192 -36 246 -127 1090
-125 1159 0 17 16 -75 34 -204 18 -129 49 -334 69 -455z m742 280 l15 -137
-42 -64 c-23 -36 -43 -63 -45 -62 -1 2 10 94 24 205 15 111 28 200 30 199 1
-2 10 -65 18 -141z m43 -367 c12 -101 40 -311 62 -467 22 -156 38 -285 36
-287 -4 -5 -34 70 -156 388 l-87 227 9 78 c7 65 16 91 55 160 26 46 50 83 53
83 3 0 16 -82 28 -182z m2731 84 c1 -20 18 -183 39 -362 38 -322 38 -325 20
-362 -21 -41 -23 -52 -10 -44 4 3 -5 -47 -21 -112 -59 -242 -142 -616 -198
-892 -32 -157 -60 -278 -63 -270 -4 8 -15 64 -25 124 l-20 109 43 176 c55 221
129 468 195 641 27 73 48 135 46 137 -12 12 -215 -550 -282 -782 -16 -55 -18
-58 -25 -33 -26 96 -23 119 35 274 30 81 54 150 52 152 -2 1 -28 -57 -57 -130
-33 -82 -55 -125 -57 -111 -3 21 48 327 94 567 14 70 23 130 21 132 -4 4 -53
-206 -106 -456 -29 -137 -30 -138 -46 -57 -4 21 157 659 250 992 37 132 75
266 83 297 18 63 32 67 32 10z m-2038 -525 l130 -348 -17 -177 c-10 -100 -19
-314 -22 -490 l-6 -313 -78 -92 c-44 -51 -83 -93 -87 -95 -5 -1 -26 37 -47 85
-36 84 -39 95 -47 238 -18 332 -4 1522 19 1585 4 10 8 6 15 -15 6 -16 69 -187
140 -378z m-942 28 c-17 -131 -31 -240 -33 -241 -2 -2 -13 56 -26 128 l-22
132 52 113 c29 62 54 112 55 110 2 -2 -10 -110 -26 -242z m212 -110 c33 -93
88 -249 123 -345 91 -250 93 -270 56 -461 -16 -85 -35 -192 -42 -239 -21 -143
-1 -175 -215 352 l-104 256 15 194 c8 106 18 204 22 218 3 14 5 30 4 35 -4 14
19 266 26 290 5 15 13 -1 31 -55 13 -41 51 -151 84 -245z m3119 -5 c2 -40 -68
-458 -89 -535 -8 -27 -10 -22 -22 45 -17 99 -18 88 29 305 71 325 63 295 73
260 4 -16 9 -50 9 -75z m-3468 -483 c-20 -54 -38 -96 -40 -94 -2 3 -19 63 -38
134 l-35 130 24 69 c13 38 34 96 47 129 l23 60 27 -165 28 -165 -36 -98z
m-234 228 l23 -110 -32 -93 c-18 -51 -35 -91 -37 -88 -2 2 -15 79 -29 170
l-25 167 32 51 c38 59 35 63 68 -97z m3786 -265 c26 -157 64 -375 85 -485 l38
-200 -71 -72 c-39 -40 -74 -69 -78 -65 -4 4 -33 134 -63 289 l-56 282 42 298
c31 218 44 290 50 268 4 -16 28 -158 53 -315z m-3956 262 c1 -18 -84 -162 -95
-162 -3 0 37 119 67 200 13 34 13 35 20 10 4 -14 7 -35 8 -48z m5216 -115
c-82 -239 -165 -530 -221 -775 -41 -182 -103 -534 -120 -677 -7 -58 -11 -65
-123 -205 -64 -80 -143 -183 -175 -230 -72 -103 -65 -94 -70 -89 -2 2 -32 104
-65 227 l-62 223 27 112 c58 244 373 863 657 1292 83 125 208 305 213 305 1 0
-26 -82 -61 -183z m-5170 -282 c3 -27 8 -64 11 -81 4 -19 -6 -75 -25 -145 -45
-173 -126 -562 -131 -639 -1 -15 -33 73 -70 195 -23 75 -40 146 -37 156 3 10
1 17 -3 14 -14 -8 -22 52 -23 172 -2 98 2 121 36 243 37 128 98 264 175 385
l26 40 17 -145 c10 -80 20 -167 24 -195z m2111 42 l118 -279 -23 -111 c-12
-62 -29 -155 -37 -207 -8 -52 -19 -106 -24 -120 -10 -25 -10 -15 4 135 4 35 0
27 -11 -28 -8 -43 -19 -75 -23 -70 -9 8 -74 456 -110 743 -11 91 -22 180 -24
199 -3 19 -2 30 3 25 5 -5 62 -134 127 -287z m-460 -20 c13 -128 29 -265 34
-305 15 -109 14 -113 -37 -172 l-48 -54 -7 45 c-9 58 -10 628 -1 709 6 61 6
62 20 36 8 -15 25 -127 39 -259z m-1241 -82 c-6 -82 -15 -143 -18 -135 -4 8
-19 62 -35 120 l-29 104 28 86 c16 47 32 92 36 100 3 8 11 -16 18 -55 10 -55
10 -102 0 -220z m2349 -120 l33 -270 -20 -48 c-11 -26 -22 -45 -24 -43 -16 16
-43 185 -43 272 0 124 13 418 18 384 2 -14 18 -146 36 -295z m-2543 183 c16
-62 29 -124 28 -138 0 -24 -70 -265 -80 -275 -3 -2 -15 60 -28 138 l-23 142
33 128 c17 70 34 126 36 123 3 -2 18 -55 34 -118z m-691 -58 c24 -166 27 -299
7 -334 -10 -18 -12 -13 -18 49 -10 103 -23 451 -16 445 3 -3 15 -75 27 -160z
m-3650 -130 c46 -265 125 -667 176 -903 19 -87 34 -164 34 -170 0 -14 -42 55
-210 346 l-125 217 8 128 c11 185 63 629 72 620 2 -2 22 -109 45 -238z m5854
180 c10 -25 65 -157 124 -295 68 -161 105 -261 104 -280 -1 -16 -11 -138 -22
-270 -11 -132 -20 -267 -21 -300 0 -65 -13 -53 -23 22 -3 21 -14 83 -26 138
-30 150 -84 470 -124 740 -20 132 -39 256 -42 275 -7 45 7 30 30 -30z m-1124
-100 c13 -36 63 -170 112 -299 l89 -235 -12 -143 c-7 -79 -16 -140 -20 -136
-8 9 -111 448 -164 698 -20 94 -38 177 -41 185 -3 9 -2 11 4 5 5 -5 19 -39 32
-75z m369 -210 c28 -146 68 -353 91 -460 22 -107 46 -219 52 -248 11 -55 -2
-116 -22 -96 -5 5 -63 133 -129 284 l-121 275 15 130 c9 72 24 185 35 253 11
67 20 125 20 129 0 33 17 -44 59 -267z m2687 157 l15 -96 -45 -318 c-24 -175
-50 -361 -57 -413 -12 -93 -13 -97 -67 -168 -30 -40 -57 -71 -58 -69 -2 2 10
98 27 213 53 367 156 960 166 951 2 -2 11 -48 19 -100z m-8027 -738 c-29 -352
-20 -897 21 -1297 11 -102 18 -187 17 -188 -4 -5 -157 230 -240 367 -82 136
-98 181 -166 454 -62 251 -99 449 -131 697 l-20 157 30 133 c29 128 68 275
111 422 l21 69 182 -360 183 -360 -8 -94z m4051 679 c0 -23 -3 -29 -9 -19 -8
12 -4 51 5 51 2 0 4 -15 4 -32z m638 -193 l51 -190 -6 -415 c-4 -249 -10 -403
-15 -385 -11 42 -133 649 -154 772 l-17 102 38 161 c21 88 42 157 45 153 4 -5
30 -93 58 -198z m2017 -69 c56 -124 82 -192 78 -208 -4 -18 -2 -20 6 -8 8 12
14 6 29 -30 19 -44 19 -48 2 -160 -10 -63 -23 -166 -30 -227 -7 -62 -17 -110
-21 -107 -5 3 -20 26 -32 51 -23 44 -23 48 -10 142 7 53 12 103 10 111 -2 8
-9 -23 -16 -70 -8 -47 -16 -89 -19 -94 -9 -17 -81 137 -76 164 3 18 2 20 -4 7
-6 -14 -15 -1 -45 58 -44 90 -46 122 -17 322 35 235 41 268 52 249 5 -9 47
-99 93 -200z m-3536 34 l0 -145 -23 55 c-24 56 -24 98 -1 229 13 71 25 5 24
-139z m4257 10 c-4 -41 -10 -78 -15 -83 -4 -4 -13 17 -19 48 -9 45 -8 68 5
128 l17 72 9 -45 c4 -25 6 -79 3 -120z m-4239 78 c-3 -8 -6 -5 -6 6 -1 11 2
17 5 13 3 -3 4 -12 1 -19z m1733 -248 c27 -135 50 -247 49 -250 0 -3 -25 67
-55 155 -50 149 -54 166 -54 254 0 52 2 92 5 90 2 -3 27 -115 55 -249z m-1675
140 c14 -27 25 -61 25 -75 0 -15 4 -24 9 -21 4 3 23 -26 40 -64 30 -65 32 -75
25 -138 -6 -53 -9 -62 -15 -42 -5 16 -6 6 -3 -26 3 -29 2 -54 -3 -57 -5 -3
-33 42 -61 101 l-52 107 0 133 c0 72 2 132 5 132 2 0 16 -22 30 -50z m2822 38
c1 -34 58 -422 94 -642 l41 -249 -27 -166 c-14 -91 -28 -168 -31 -170 -2 -2
-4 13 -5 35 -1 66 -10 189 -15 193 -2 2 -4 -38 -4 -89 0 -51 -2 -91 -5 -89 -6
7 -49 221 -74 374 -28 163 -57 401 -71 568 l-11 138 48 54 c50 57 59 63 60 43z
m-1622 -133 l18 -125 -32 -147 c-27 -130 -70 -357 -72 -387 -2 -35 -28 58 -29
104 0 110 75 680 90 680 4 0 15 -56 25 -125z m-487 10 c0 -22 -3 -49 -8 -60
-6 -13 -8 11 -8 70 0 62 3 81 8 60 4 -16 8 -48 8 -70z m4157 -127 l27 -148
-48 -56 c-27 -31 -50 -51 -52 -46 -2 6 6 95 17 199 12 103 21 192 21 197 0 31
12 -17 35 -146z m-4945 -221 c1 -133 -3 -282 -9 -332 -5 -49 -13 -136 -17
-193 -4 -56 -8 -101 -10 -100 -1 2 -10 100 -20 218 -12 165 -15 273 -10 465 4
138 9 263 13 279 6 27 7 25 29 -33 22 -57 23 -76 24 -304z m4299 271 c11 -63
6 -138 -9 -138 -13 0 -22 96 -15 150 4 28 8 50 10 50 2 0 8 -28 14 -62z m970
-127 c17 -90 34 -168 37 -173 3 -5 -25 -50 -62 -100 -57 -76 -69 -88 -76 -72
-10 25 -78 333 -78 355 0 22 130 173 140 162 4 -4 22 -82 39 -172z m-2066 94
c9 -22 27 -123 40 -225 18 -149 21 -205 15 -290 -4 -58 -8 -163 -8 -235 -1
-78 -4 -122 -9 -110 -10 24 -38 245 -51 395 l-9 105 5 -134 c2 -73 9 -177 14
-230 6 -53 13 -115 15 -138 2 -23 14 -106 25 -185 11 -78 22 -158 24 -175 3
-18 1 -33 -4 -33 -5 0 -12 21 -15 48 -4 26 -11 58 -16 72 -5 14 -18 66 -28
115 -10 50 -29 133 -41 185 -21 91 -22 107 -15 360 5 146 9 279 10 295 2 17 3
79 4 140 1 118 9 125 44 40z m-483 -349 c-7 -39 -16 -75 -20 -79 -4 -4 -36 56
-73 134 -47 101 -63 147 -57 158 5 9 39 54 77 101 l68 85 9 -164 c6 -123 5
-183 -4 -235z m1449 234 c-7 -25 -14 -49 -17 -55 -11 -19 -21 51 -13 85 5 19
12 49 16 65 l8 30 9 -40 c6 -27 5 -55 -3 -85z m-2035 -194 c53 -132 96 -244
94 -250 -8 -32 -124 -204 -129 -193 -4 7 -23 73 -43 148 -34 127 -36 145 -36
285 0 130 8 260 15 252 2 -2 46 -111 99 -242z m-1908 182 l26 -52 -23 -73
c-12 -40 -26 -73 -30 -73 -5 0 -13 10 -20 21 -8 16 -8 46 0 114 6 52 11 98 11
104 0 22 10 10 36 -41z m595 0 c-9 -20 -10 -18 -10 17 0 31 2 36 9 23 6 -10 7
-25 1 -40z m-4490 -238 c21 -173 56 -395 88 -549 10 -50 17 -91 15 -91 -6 0
-106 202 -160 321 l-47 104 12 100 c15 124 49 325 58 345 5 9 8 -1 10 -25 2
-22 13 -114 24 -205z m7377 173 c12 -27 21 -52 21 -57 0 -5 3 -12 8 -15 5 -3
14 -18 20 -33 10 -22 8 -37 -10 -90 l-22 -63 -6 45 c-5 40 -6 38 -8 -25 -2
-82 -52 -258 -66 -235 -18 29 -5 161 22 229 14 36 30 70 34 76 5 5 9 16 8 25
0 8 -15 -16 -34 -55 -24 -49 -32 -61 -30 -40 2 17 9 87 16 158 6 70 15 127 19
127 3 0 16 -21 28 -47z m-3578 -274 c-7 -82 -16 -146 -20 -144 -4 2 -12 39
-19 82 -7 43 -16 103 -21 133 -15 90 -21 188 -13 217 6 26 9 22 46 -56 l39
-84 -12 -148z m710 289 c0 -19 -2 -20 -10 -8 -13 19 -13 30 0 30 6 0 10 -10
10 -22z m182 -243 c-7 -37 -10 -30 -35 95 -15 74 -27 140 -26 145 0 6 16 -37
34 -95 28 -85 33 -113 27 -145z m342 -20 c20 -121 61 -341 90 -488 29 -147 49
-264 45 -260 -13 14 -106 187 -178 330 l-69 139 14 134 c22 216 46 382 54 373
4 -4 23 -107 44 -228z m3662 9 l38 -191 -63 -98 c-35 -53 -94 -149 -132 -213
l-70 -117 5 55 c3 30 15 172 27 315 12 143 24 277 28 297 8 50 113 187 123
161 3 -10 23 -104 44 -209z m-4675 46 l80 -163 -17 -56 -16 -56 -18 23 c-10
12 -51 76 -90 143 l-72 120 22 80 c13 44 25 78 27 75 2 -2 40 -77 84 -166z
m4008 44 c28 -161 25 -173 -9 -38 -15 61 -26 123 -23 138 3 15 7 25 9 24 1 -2
12 -58 23 -124z m-1774 -89 l78 -180 -28 -143 c-16 -79 -32 -137 -36 -130 -4
7 -5 26 -3 43 4 21 3 26 -4 16 -7 -10 -11 -6 -15 15 -3 16 -17 72 -30 124 -20
78 -57 361 -57 435 0 35 16 4 95 -180z m-1930 37 c28 -113 28 -113 10 -178 -9
-35 -21 -64 -25 -64 -5 0 -22 28 -39 61 -17 34 -35 67 -40 73 -6 7 1 53 20
126 16 63 29 117 29 120 2 18 21 -41 45 -138z m3574 -44 c-7 -43 -16 -78 -21
-78 -10 0 -10 6 4 114 9 71 13 85 20 66 5 -14 4 -54 -3 -102z m-2473 -88 c37
-107 90 -257 119 -332 l52 -136 -101 -122 -101 -122 -7 74 c-14 152 -41 845
-33 836 2 -2 34 -91 71 -198z m-4586 -215 c34 -60 104 -180 155 -265 91 -153
94 -158 140 -330 65 -244 136 -492 206 -715 33 -104 62 -199 66 -210 6 -20 6
-20 -18 0 -20 16 -19 15 3 -10 16 -18 43 -77 68 -148 l41 -118 -42 -120 c-24
-67 -46 -116 -51 -111 -13 13 -111 243 -167 396 -94 253 -201 658 -227 866 -4
30 -9 50 -11 43 -12 -35 63 -435 128 -682 31 -122 107 -371 147 -481 11 -30
-253 264 -405 452 -52 64 -98 131 -103 150 -16 58 -78 437 -99 603 -44 351
-61 598 -61 885 l0 205 83 -150 c46 -82 112 -199 147 -260z m5584 245 l6 -75
-26 51 c-25 48 -26 53 -13 110 12 59 12 59 20 24 4 -19 9 -69 13 -110z m1045
-97 c-16 -81 -34 -157 -39 -168 -15 -33 -12 38 6 138 8 49 13 94 11 100 -2 6
-10 -25 -17 -68 -11 -62 -15 -74 -21 -55 -14 51 -8 126 17 209 l26 85 23 -47
24 -46 -30 -148z m-3622 185 c-3 -8 -6 -5 -6 6 -1 11 2 17 5 13 3 -3 4 -12 1
-19z m5109 -173 l-54 -127 -11 38 c-6 22 -11 44 -11 51 0 7 28 58 63 115 52
87 62 99 65 77 2 -16 -20 -80 -52 -154z m-1209 133 c-3 -8 -6 -5 -6 6 -1 11 2
17 5 13 3 -3 4 -12 1 -19z m-3787 -153 l83 -149 -12 -61 c-7 -33 -17 -82 -23
-110 l-11 -50 -18 50 c-22 62 -24 48 -3 -20 13 -42 13 -62 3 -130 -20 -132
-24 -131 -53 20 -56 294 -84 560 -62 593 4 7 9 12 11 10 1 -2 40 -70 85 -153z
m3117 133 c-3 -8 -6 -5 -6 6 -1 11 2 17 5 13 3 -3 4 -12 1 -19z m-1053 -93 l7
-50 -25 45 c-18 35 -22 49 -14 64 14 26 24 7 32 -59z m1141 -180 c-3 -49 -9
-108 -12 -130 l-7 -40 -7 40 c-4 22 -17 81 -27 130 -27 119 -36 198 -27 232 6
25 10 21 46 -57 40 -85 40 -85 34 -175z m-2545 -65 c15 -85 26 -157 25 -158
-7 -8 -136 445 -134 468 0 3 18 -31 41 -75 34 -67 45 -104 68 -235z m3789 228
c-15 -109 -17 -128 -40 -368 -12 -129 -25 -239 -29 -243 -4 -4 -22 58 -40 138
-44 197 -40 228 38 310 34 36 41 46 17 24 -73 -65 -72 -64 -65 -11 4 35 20 67
64 130 32 45 59 82 60 82 2 0 -1 -28 -5 -62z m-4544 -216 c8 -84 18 -174 20
-200 4 -37 -1 -25 -25 53 -34 111 -47 231 -35 321 l8 59 8 -40 c5 -22 15 -109
24 -193z m3529 96 c4 -54 3 -98 -1 -98 -18 0 -46 69 -39 97 17 70 28 105 30
102 2 -2 6 -48 10 -101z m587 11 c19 -77 20 -92 8 -182 -7 -54 -15 -100 -19
-102 -3 -2 -14 35 -23 83 -12 67 -14 105 -7 167 5 44 9 91 9 104 1 39 11 19
32 -70z m-4277 -65 c13 -108 13 -128 -1 -180 -8 -33 -17 -61 -19 -63 -2 -2 -4
83 -3 190 0 107 2 190 4 184 3 -5 11 -65 19 -131z m2298 -34 c64 -150 71 -176
83 -315 1 -22 5 -47 8 -55 6 -21 70 -412 70 -430 -1 -55 -8 -120 -13 -120 -18
0 -41 76 -49 165 l-9 100 1 -82 c1 -44 -1 -79 -5 -77 -10 7 -78 137 -78 150 0
7 -4 14 -9 16 -23 8 -84 162 -140 350 -33 114 -61 214 -61 223 0 27 51 118 89
160 20 22 25 31 12 20 l-24 -20 23 43 c13 23 27 39 30 35 4 -5 36 -78 72 -163z
m494 -234 c8 -44 11 -94 8 -111 l-7 -30 -13 30 c-7 17 -13 26 -14 21 0 -11 20
-84 30 -111 20 -48 19 -59 0 -93 -12 -19 -19 -37 -16 -39 2 -3 12 10 22 29 17
32 17 32 27 10 7 -15 6 -66 -4 -165 l-15 -142 -31 60 c-28 55 -30 65 -22 115
5 30 11 82 13 115 l5 60 -15 -69 c-23 -115 -35 -110 -70 32 -9 37 -23 81 -29
97 -27 65 -45 146 -45 205 0 68 18 291 26 330 9 40 132 -241 150 -344z m-6543
224 c19 -47 76 -172 125 -278 67 -143 102 -232 132 -340 23 -81 70 -232 105
-337 35 -104 62 -191 61 -192 -2 -2 -269 432 -284 460 -19 37 -123 454 -156
625 -37 187 -36 190 17 62z m4265 25 c32 -66 39 -99 23 -123 -6 -10 -18 0 -45
37 -20 28 -36 59 -36 70 0 30 12 81 19 81 4 0 21 -29 39 -65z m2992 37 c0 -9
-5 -24 -10 -32 -7 -11 -10 -5 -10 23 0 23 4 36 10 32 6 -3 10 -14 10 -23z
m-2380 -30 c0 -28 -3 -33 -10 -22 -13 20 -13 73 0 65 6 -3 10 -23 10 -43z
m1902 -50 c17 -88 22 -297 9 -357 -7 -30 -7 -30 -26 20 -11 28 -25 56 -32 63
-10 10 -12 36 -9 90 6 110 28 283 35 276 3 -3 13 -44 23 -92z m-6778 -324 c14
-70 26 -133 26 -140 0 -27 -48 71 -84 175 -38 105 -39 108 -32 209 12 186 17
188 42 28 12 -80 34 -202 48 -272z m4502 247 c3 -11 -6 -2 -20 20 -18 27 -26
53 -25 80 l1 40 19 -60 c11 -33 22 -69 25 -80z m2804 21 c0 -34 -42 -226 -59
-266 -3 -8 -7 47 -9 122 -2 105 1 151 14 195 l17 57 18 -35 c10 -19 18 -51 19
-73z m-4147 -247 l104 -215 7 -125 c8 -144 14 -146 -88 33 -57 101 -66 124
-67 170 -1 48 -2 49 -8 18 -7 -35 -7 -35 -59 67 l-52 103 1 142 0 143 29 -60
c17 -33 76 -157 133 -276z m395 101 c110 -239 119 -282 92 -440 -15 -90 -19
-101 -27 -80 -35 86 -183 745 -163 723 5 -4 49 -96 98 -203z m5285 128 l16
-73 -45 -145 c-82 -261 -150 -577 -189 -874 l-7 -50 -18 30 c-26 43 -110 370
-110 431 0 40 13 81 61 195 71 168 259 558 269 558 4 0 14 -33 23 -72z m-1784
-72 c-5 -6 -9 7 -8 35 l1 44 8 -35 c5 -20 5 -39 -1 -44z m-2824 -178 c-15 -71
-30 -127 -32 -125 -2 2 -7 44 -12 93 -9 79 -9 73 -4 -51 3 -77 3 -138 0 -135
-3 3 -15 29 -26 58 -20 49 -20 60 -9 147 6 52 15 92 20 89 4 -3 8 28 8 69 0
40 3 77 7 80 3 4 22 -16 41 -45 l35 -51 -28 -129z m115 186 c0 -21 -4 -33 -10
-29 -5 3 -10 19 -10 36 0 16 5 29 10 29 6 0 10 -16 10 -36z m3059 -129 c0 -66
-23 -193 -31 -179 -4 6 -10 80 -13 165 l-6 154 25 -45 c18 -31 25 -60 25 -95z
m1840 -139 c1 -10 -22 -59 -51 -108 -78 -135 -85 -109 -48 172 30 226 28 224
66 80 18 -69 33 -133 33 -144z m-10270 129 c103 -331 180 -620 167 -633 -2 -2
-34 35 -71 83 -47 60 -71 101 -81 138 -20 76 -61 268 -79 372 -9 50 -18 101
-21 113 -5 23 -3 22 35 -10 23 -18 45 -46 50 -63z m6617 -111 c-40 -88 -83
-185 -96 -217 -13 -31 -27 -54 -31 -50 -4 5 -10 49 -14 98 l-7 91 63 84 c107
146 141 184 151 167 5 -10 -16 -67 -66 -173z m3465 134 c-3 -21 -6 -26 -9 -15
-3 17 3 47 11 47 2 0 1 -15 -2 -32z m-5241 -108 c13 -72 21 -132 18 -135 -2
-3 -19 26 -37 64 -31 64 -33 73 -27 135 4 36 11 66 15 66 4 0 18 -59 31 -130z
m505 58 c4 -17 4 -147 0 -287 l-8 -256 -40 85 -39 85 22 155 c37 261 48 297
65 218z m-5276 -78 c16 -102 13 -104 -19 -12 -48 138 -47 131 -18 104 19 -17
28 -40 37 -92z m8625 41 c-4 -34 -9 -60 -11 -57 -3 3 -2 32 2 66 4 34 9 59 12
57 2 -3 1 -33 -3 -66z m181 -70 c-4 -45 -12 -84 -18 -88 -7 -4 -8 16 -4 63 4
38 7 82 7 99 0 21 3 26 11 18 8 -8 9 -37 4 -92z m-1271 4 c5 -26 4 -36 -2 -30
-17 17 -33 81 -25 101 6 16 7 16 13 -6 4 -14 10 -43 14 -65z m-7481 38 c9 -11
18 -46 21 -93 4 -41 9 -97 12 -125 3 -27 3 -47 -1 -43 -10 10 -63 278 -55 278
4 0 14 -8 23 -17z m3965 -98 c47 -105 50 -115 56 -225 14 -232 55 -577 92
-768 8 -41 12 -77 10 -79 -35 -35 -152 473 -186 807 -6 58 -15 141 -20 185 -9
83 -13 201 -6 194 2 -2 26 -53 54 -114z m4250 -60 l0 -50 -15 49 c-11 37 -13
66 -7 115 l8 66 7 -65 c4 -36 7 -87 7 -115z m-211 128 c-3 -10 -5 -4 -5 12 0
17 2 24 5 18 2 -7 2 -21 0 -30z m-1419 -85 c-3 -51 -2 -85 1 -75 4 10 14 -60
24 -155 9 -95 26 -235 38 -312 11 -76 18 -143 17 -148 -2 -6 -36 33 -75 85
l-71 94 18 139 c10 76 21 157 25 179 4 22 5 38 2 35 -4 -3 -18 -75 -33 -160
-14 -85 -27 -157 -29 -158 -2 -2 -24 24 -49 58 l-45 62 39 107 c31 89 68 186
121 319 17 43 22 21 17 -70z m1191 -8 c12 -52 21 -97 21 -100 0 -3 -11 13 -25
35 -19 31 -24 54 -25 104 0 35 2 62 4 60 3 -3 14 -47 25 -99z m2639 -4 l-32
-99 -13 38 c-13 37 -12 40 28 102 23 35 43 62 45 60 2 -1 -11 -47 -28 -101z
m-10290 14 c36 -31 53 -54 57 -75 2 -16 12 -86 21 -155 16 -121 69 -425 81
-465 5 -18 4 -19 -12 -5 -18 15 -112 203 -174 350 -30 70 -40 125 -65 373 l-6
59 23 -19 c12 -10 46 -38 75 -63z m5837 -150 c54 -96 98 -180 98 -185 0 -17
-84 -145 -92 -141 -13 9 -59 139 -90 258 -22 84 -31 139 -31 195 0 48 4 72 9
63 5 -8 53 -94 106 -190z m-511 47 l88 -108 53 -177 c29 -97 56 -204 59 -237
4 -33 18 -129 32 -212 l25 -153 -32 -72 c-17 -40 -33 -74 -34 -76 -1 -1 -43
65 -93 147 -87 144 -93 156 -136 313 -41 147 -46 180 -56 335 -12 206 -13 371
-2 358 5 -6 48 -58 96 -118z m-391 30 c14 -43 14 -56 1 -135 -9 -48 -17 -89
-19 -91 -7 -6 -28 52 -27 74 2 88 15 215 22 208 4 -4 14 -29 23 -56z m2988
-68 c15 -77 18 -122 13 -174 -9 -92 -18 -67 -37 95 -13 108 -13 200 -1 187 3
-2 13 -51 25 -108z m-7174 -71 c44 -79 96 -183 115 -233 20 -49 54 -132 76
-182 22 -51 38 -93 35 -93 -3 0 -73 50 -154 111 l-149 111 0 63 c0 34 -3 130
-7 213 -3 84 -4 152 0 152 3 0 41 -64 84 -142z m3396 -131 l-18 -60 -28 42
c-23 34 -30 61 -38 129 -5 48 -8 105 -8 127 0 39 2 36 55 -68 l55 -109 -18
-61z m2443 241 c28 -54 84 -268 86 -327 1 -48 2 -50 6 -16 l4 40 24 -75 c13
-41 24 -90 24 -109 0 -30 -2 -32 -17 -20 -16 13 -17 12 -4 -3 10 -13 11 -33 6
-74 -4 -31 -9 -54 -11 -51 -4 3 -13 140 -14 195 0 13 -4 20 -10 17 -6 -3 -8
-16 -6 -28 8 -38 17 -191 11 -186 -14 15 -131 669 -119 669 2 0 11 -15 20 -32z
m2015 5 c-8 -15 -10 -15 -11 -2 0 17 10 32 18 25 2 -3 -1 -13 -7 -23z m-8267
-192 l206 -175 0 -125 c0 -69 5 -210 11 -313 6 -102 9 -194 7 -203 -3 -18
-195 158 -282 259 -45 53 -51 66 -82 189 -33 129 -95 432 -110 531 l-7 50 26
-20 c13 -10 118 -98 231 -193z m7093 -71 l4 -145 -35 61 -34 61 8 134 c5 74
10 139 11 144 0 6 10 -17 22 -50 16 -47 21 -92 24 -205z m2314 10 c-16 -146
-21 -167 -71 -293 -30 -75 -55 -135 -57 -134 -9 9 79 518 109 632 l10 40 14
-44 c11 -38 10 -67 -5 -201z m-5724 15 c38 -69 46 -92 54 -168 8 -64 7 -103
-2 -145 l-12 -57 -13 30 c-7 17 -13 36 -14 44 0 8 -3 12 -6 9 -3 -3 2 -31 11
-61 15 -50 15 -63 1 -144 -9 -48 -16 -92 -17 -98 -5 -53 -73 337 -99 565 -28
247 -28 250 16 170 20 -36 56 -101 81 -145z m6392 -45 c-23 -33 -44 -58 -47
-56 -2 3 15 69 39 148 l44 143 3 -88 3 -88 -42 -59z m-267 28 l25 -87 -33
-147 c-18 -80 -35 -148 -37 -150 -2 -2 -24 62 -49 143 l-46 148 51 98 c28 53
54 94 58 90 4 -5 18 -47 31 -95z m624 68 c-9 -14 -26 -30 -37 -37 -17 -9 -14
-2 11 30 35 44 54 48 26 7z m-7641 -49 c141 -392 316 -819 473 -1152 66 -140
142 -344 142 -381 0 -12 -69 56 -260 258 l-167 176 -12 149 c-17 205 -20 221
-14 63 2 -74 7 -145 10 -157 3 -13 1 -23 -4 -23 -8 0 -221 243 -317 363 -35
43 -38 51 -32 90 18 117 129 572 153 627 3 8 5 20 4 25 -6 22 13 -7 24 -38z
m-1781 -246 c44 -68 49 -83 67 -190 10 -64 21 -127 24 -141 12 -60 -116 217
-216 468 -27 67 -49 128 -49 134 0 7 28 -35 63 -92 34 -58 84 -138 111 -179z
m2896 139 c42 -84 73 -158 77 -186 4 -33 3 -45 -5 -40 -19 11 -172 234 -172
250 0 17 22 116 26 116 2 0 35 -63 74 -140z m823 33 c32 -78 37 -99 39 -190 2
-56 0 -99 -4 -95 -10 11 -83 372 -75 372 2 0 20 -39 40 -87z m2607 -15 c0 -9
-5 -20 -10 -23 -12 -8 -31 37 -36 90 l-5 40 25 -45 c14 -25 25 -53 26 -62z
m-7719 -130 c5 -18 18 -87 30 -153 11 -66 33 -183 50 -259 16 -77 29 -142 28
-145 -3 -42 -259 714 -259 767 0 22 140 -174 151 -210z m5062 104 c8 -51 12
-92 10 -92 -2 0 -13 19 -23 43 -15 33 -18 56 -13 96 3 28 7 50 9 48 2 -2 10
-45 17 -95z m-520 -17 c6 -97 6 -99 -9 -60 -11 29 -13 58 -9 103 4 35 8 62 10
60 1 -2 5 -48 8 -103z m1548 -47 c48 -84 50 -89 39 -128 l-11 -41 -90 77 c-49
42 -88 80 -87 83 2 3 18 35 37 71 39 75 31 79 112 -62z m-3541 -272 c0 -7 -15
-48 -34 -92 l-35 -79 -11 30 c-25 66 -170 498 -170 508 0 5 56 -72 125 -173
69 -100 125 -188 125 -194z m2186 190 c8 -39 16 -82 19 -96 4 -18 3 -21 -4
-10 -9 15 -81 256 -81 268 2 25 54 -104 66 -162z m3042 6 c-4 -25 -10 -47 -12
-49 -2 -2 -15 30 -29 72 -22 63 -24 81 -15 101 12 25 12 25 38 -27 23 -45 26
-58 18 -97z m-3631 81 c-3 -10 -5 -4 -5 12 0 17 2 24 5 18 2 -7 2 -21 0 -30z
m4490 -5 c17 -33 23 -69 28 -158 5 -72 3 -111 -2 -105 -6 6 -23 44 -40 85 -25
65 -29 85 -25 148 2 39 7 72 11 72 3 0 16 -19 28 -42z m-4437 -51 c14 -23 27
-46 29 -52 2 -5 7 -12 10 -15 3 -3 37 -51 75 -107 82 -121 81 -116 69 -447
l-8 -220 -47 110 c-49 113 -49 115 -82 419 -2 22 -3 -11 0 -74 2 -63 2 -112 0
-110 -6 6 -52 228 -74 359 -18 105 -20 180 -3 180 3 0 17 -19 31 -43z m3365
-47 c-4 -23 -3 -30 3 -22 13 19 35 -44 23 -65 -12 -22 -40 53 -46 124 -5 57
-5 57 10 28 9 -18 13 -44 10 -65z m497 -40 c6 -52 6 -54 -7 -25 -8 17 -14 53
-14 80 1 61 13 30 21 -55z m-7060 -140 l97 -75 44 -105 c25 -58 72 -170 105
-250 73 -178 187 -424 255 -549 36 -68 45 -90 31 -83 -10 6 -91 61 -179 124
l-159 113 -19 80 c-10 44 -29 139 -42 210 -14 75 -22 104 -19 68 3 -34 16
-121 29 -195 12 -73 21 -134 20 -136 -4 -4 -291 226 -336 269 -35 34 -35 34
-53 184 -17 138 -27 253 -43 474 l-6 84 89 -69 c49 -38 133 -103 186 -144z
m3408 98 c0 -30 -14 -38 -24 -12 -3 9 -6 32 -6 52 l1 37 14 -25 c8 -14 14 -37
15 -52z m2406 -5 c-4 -8 2 -27 13 -41 10 -15 35 -79 56 -142 33 -105 36 -118
25 -155 l-12 -40 -24 28 c-13 16 -24 38 -24 50 0 15 -3 18 -8 9 -6 -9 -16 -4
-38 19 -27 28 -29 35 -28 107 1 42 2 101 3 131 0 47 3 52 18 47 14 -6 16 -5 6
5 -7 7 -13 24 -12 39 1 23 2 23 15 -9 8 -18 13 -40 10 -48z m-6613 -148 c48
-97 81 -183 108 -280 22 -77 51 -176 65 -219 13 -43 23 -80 21 -82 -13 -13
-297 713 -297 759 0 22 35 -39 103 -178z m8949 115 c-4 -45 -6 -50 -14 -31 -5
15 -4 37 3 58 15 46 18 39 11 -27z m-4996 -47 c18 -120 17 -128 -11 -55 -19
48 -23 74 -18 108 3 24 8 42 11 39 3 -3 11 -44 18 -92z m5833 -71 c35 -121 40
-146 29 -160 -43 -56 -103 -122 -110 -122 -4 0 -8 83 -8 185 0 152 3 190 17
220 9 19 20 32 24 28 3 -5 25 -73 48 -151z m-2111 28 c0 -22 -1 -22 -8 5 -4
17 -8 41 -8 55 0 22 1 22 8 -5 4 -16 8 -41 8 -55z m-41 13 c-3 -10 -5 -4 -5
12 0 17 2 24 5 18 2 -7 2 -21 0 -30z m-5123 -191 c119 -164 126 -176 126 -220
0 -60 -10 -122 -20 -122 -4 0 -61 45 -126 100 l-119 101 123 -118 c103 -99
121 -122 116 -140 -4 -13 -8 -23 -11 -23 -3 0 -51 38 -108 84 -95 79 -104 89
-125 148 -12 35 -28 77 -35 93 -39 95 -39 85 1 189 20 53 40 93 45 89 4 -4 64
-86 133 -181z m1449 63 c35 -105 101 -394 93 -402 -2 -2 -34 35 -71 82 -90
115 -100 153 -84 323 7 68 15 120 19 115 4 -4 24 -57 43 -118z m4526 -230 c-1
-126 -8 -131 -59 -44 -41 70 -43 79 -52 188 -6 62 -7 134 -3 159 l7 46 54
-135 c50 -124 54 -140 53 -214z m-3320 145 c16 -55 27 -100 26 -100 -12 0 -44
74 -49 115 -4 28 -9 64 -11 80 -7 45 3 16 34 -95z m-6042 -51 c241 -212 579
-492 815 -677 184 -144 198 -158 221 -210 14 -32 31 -84 37 -116 7 -32 15 -54
19 -48 4 7 22 -24 41 -71 64 -158 149 -346 234 -516 47 -94 86 -173 86 -176 0
-3 -26 12 -58 34 l-59 40 -53 133 c-29 73 -83 225 -121 338 -37 113 -68 200
-69 194 0 -20 78 -287 134 -453 31 -91 54 -166 52 -168 -9 -9 -378 273 -547
418 l-69 60 -2 237 -1 237 -11 -229 -11 -230 -217 213 c-246 240 -413 422
-445 484 -38 72 -184 673 -162 665 4 -2 88 -73 186 -159z m7290 83 c9 -12 14
-25 11 -27 -3 -3 -22 21 -42 52 -26 40 -29 49 -11 28 15 -16 33 -40 42 -53z
m-401 13 c10 -53 0 -62 -25 -22 -14 24 -20 44 -16 57 9 29 32 9 41 -35z m3145
-168 c28 -99 49 -186 47 -195 -2 -9 -29 39 -61 105 l-57 122 1 98 c0 119 2
116 70 -130z m-8849 18 l115 -120 7 -85 c4 -47 10 -96 12 -110 l5 -25 -20 23
c-50 57 -311 482 -311 506 0 6 17 -7 38 -29 22 -22 91 -94 154 -160z m9888
111 c12 -36 10 -44 -31 -138 -32 -74 -45 -95 -51 -83 -16 28 -48 128 -48 149
0 23 100 130 111 118 4 -4 12 -24 19 -46z m-5813 -93 c70 -88 70 -88 106 -228
20 -77 56 -206 81 -287 25 -80 46 -152 46 -159 0 -7 -12 -2 -27 12 -24 20 -24
19 3 -11 26 -29 34 -49 44 -118 7 -45 10 -85 8 -88 -3 -2 -65 58 -139 134
-127 130 -135 141 -152 201 -10 35 -22 98 -28 140 -11 88 -25 491 -17 491 3 0
37 -39 75 -87z m-2746 -92 c68 -84 130 -162 138 -173 13 -18 -168 94 -210 129
-9 8 -26 52 -38 98 -20 80 -26 114 -17 104 2 -2 59 -73 127 -158z m2198 96 c0
-21 -1 -21 -9 -2 -12 28 -12 37 0 30 6 -3 10 -16 9 -28z m3155 7 c3 -8 2 -12
-4 -9 -6 3 -10 10 -10 16 0 14 7 11 14 -7z m3211 -144 c-20 -61 -38 -110 -40
-110 -3 0 -9 9 -15 19 -8 15 -3 38 19 98 55 147 51 140 62 120 8 -13 1 -46
-26 -127z m-3432 110 c3 -11 1 -20 -4 -20 -5 0 -9 9 -9 20 0 11 2 20 4 20 2 0
6 -9 9 -20z m-1935 -25 c-3 -3 -9 2 -12 12 -6 14 -5 15 5 6 7 -7 10 -15 7 -18z
m658 -135 l6 -55 -36 52 c-42 60 -41 58 -19 109 l16 39 14 -45 c7 -25 16 -70
19 -100z m-432 -339 c-10 -12 -51 43 -81 109 -44 94 -143 336 -143 347 0 4 51
-95 114 -222 62 -126 112 -232 110 -234z m3786 377 c0 -15 -4 -30 -10 -33 -6
-4 -10 12 -10 42 0 35 3 44 10 33 5 -8 10 -27 10 -42z m-3526 26 c3 -8 2 -12
-4 -9 -6 3 -10 10 -10 16 0 14 7 11 14 -7z m4984 -96 l31 -87 -62 -39 c-56
-36 -63 -38 -71 -22 -9 21 52 256 64 243 4 -4 21 -47 38 -95z m-6405 7 l6 -40
-14 35 c-7 19 -13 49 -13 65 0 29 0 29 7 5 4 -14 11 -43 14 -65z m190 -147
c14 -54 77 -411 74 -415 -12 -11 -45 52 -84 164 -48 137 -143 446 -143 465 0
18 146 -186 153 -214z m-3997 2 c31 -80 85 -208 120 -284 35 -77 62 -141 60
-143 -1 -2 -35 59 -74 135 -44 85 -92 199 -126 301 -81 237 -75 235 20 -9z
m2803 -41 c89 -110 156 -197 149 -193 -24 14 -317 254 -323 265 -6 9 3 129 10
129 2 0 76 -90 164 -201z m-327 61 l30 -25 -12 -85 c-15 -108 -18 -120 -30
-100 -11 20 -140 330 -140 337 0 3 28 -19 61 -49 34 -29 75 -64 91 -78z m3948
-135 l0 -70 -29 45 c-24 39 -101 247 -101 274 0 6 29 -33 65 -85 64 -94 64
-94 65 -164z m-6234 198 c15 -27 65 -107 110 -179 l84 -132 23 -136 c13 -75
20 -133 15 -128 -25 25 -278 622 -264 622 2 0 16 -21 32 -47z m1930 4 c21 -58
112 -301 123 -331 10 -25 3 -21 -56 32 -38 33 -86 79 -108 101 l-39 41 12 48
c30 110 44 153 50 148 3 -4 11 -21 18 -39z m3258 -99 c42 -67 66 -115 64 -129
-2 -17 -20 2 -80 87 -72 100 -89 139 -71 157 9 9 9 10 87 -115z m-3661 -49
c117 -78 213 -143 215 -145 4 -3 -65 -255 -72 -262 -3 -3 -7 -3 -9 -1 -2 2
-42 54 -88 114 -205 264 -231 303 -250 370 -10 36 -15 65 -13 65 3 0 101 -64
217 -141z m8031 27 c-6 -73 -9 -84 -21 -74 -35 29 -36 49 -7 109 15 32 29 57
31 55 2 -2 1 -43 -3 -90z m908 -46 l-67 -130 -23 52 c-12 28 -21 55 -20 60 3
6 168 147 175 148 2 0 -28 -58 -65 -130z m-9860 -128 l116 -97 32 -125 c18
-69 58 -204 90 -300 31 -96 56 -176 55 -178 -8 -9 -413 457 -482 554 -20 28
-45 137 -78 343 l-7 45 78 -73 c44 -40 131 -116 196 -169z m7558 178 c11 -21
20 -52 19 -67 0 -24 -4 -20 -25 26 -36 80 -32 115 6 41z m-5560 -120 c86 -74
192 -166 238 -204 45 -38 80 -71 78 -73 -4 -4 -188 134 -383 289 -90 71 -113
95 -113 114 0 33 -5 36 180 -126z m3910 86 c0 -20 -1 -20 -19 4 -11 13 -17 28
-14 33 8 13 33 -14 33 -37z m84 -53 c3 -21 6 -47 6 -58 -1 -16 -2 -17 -9 -5
-13 23 -22 100 -12 100 4 0 11 -17 15 -37z m-4139 -12 c16 -16 60 -53 96 -82
98 -79 374 -302 377 -304 8 -6 47 -245 40 -245 -17 0 -133 63 -145 79 -7 9
-57 81 -110 161 -53 80 -101 150 -106 155 -16 16 41 -82 114 -195 37 -57 66
-106 64 -108 -3 -3 -250 125 -282 146 -9 5 -93 383 -93 417 0 12 16 3 45 -24z
m3878 -164 l-17 -32 -6 30 c-3 17 -2 48 4 69 l9 40 13 -38 c12 -33 11 -42 -3
-69z m-3890 -196 c-2 -3 -16 5 -31 16 -26 19 -27 24 -24 94 6 161 13 165 37
24 12 -71 20 -132 18 -134z m7728 146 l13 -77 -34 -35 c-19 -19 -37 -32 -41
-28 -19 21 -78 178 -70 186 5 5 31 22 58 37 56 33 54 35 74 -83z m-11136 -112
c71 -82 203 -224 292 -316 l163 -166 0 -74 c0 -103 26 -403 51 -597 11 -90 19
-165 17 -167 -14 -14 -340 605 -453 860 -102 231 -255 632 -255 668 0 6 13 -4
28 -23 15 -19 85 -102 157 -185z m2843 71 c61 -127 195 -370 273 -494 55 -88
76 -152 49 -152 -37 0 -116 58 -187 137 -157 176 -273 321 -273 342 0 20 46
252 56 280 8 25 32 -7 82 -113z m7020 79 c-3 -3 -9 2 -12 12 -6 14 -5 15 5 6
7 -7 10 -15 7 -18z m-2515 -68 c24 -75 21 -79 -13 -26 -18 28 -28 53 -24 63
10 27 20 18 37 -37z m-5403 -152 c52 -49 146 -137 209 -195 93 -85 128 -127
189 -220 42 -63 91 -151 110 -195 l34 -80 -12 -100 c-6 -55 -13 -101 -15 -103
-1 -1 -47 23 -101 54 -75 44 -131 88 -233 183 -149 141 -148 139 -256 411 -52
131 -145 401 -145 421 0 16 117 -78 220 -176z m3434 -240 c30 -125 30 -129 15
-119 -24 14 -309 474 -309 498 0 6 60 -52 134 -129 l134 -140 26 -110z m5439
321 c19 -54 5 -78 -24 -41 -26 32 -25 85 2 85 4 0 14 -20 22 -44z m-5734 -166
c0 -8 -9 14 -20 50 -10 36 -19 70 -18 75 1 15 39 -108 38 -125z m-2965 -19
c33 -23 70 -59 83 -81 13 -22 22 -40 19 -40 -8 0 -286 239 -286 246 0 3 28
-15 63 -39 34 -25 89 -63 121 -86z m1045 -17 c31 -34 40 -79 25 -119 -7 -16
-69 72 -149 210 l-29 50 61 -53 c34 -29 75 -69 92 -88z m7341 96 c0 -16 -2
-30 -5 -30 -9 0 -26 41 -20 50 12 20 25 9 25 -20z m-6365 -160 c117 -90 285
-244 285 -261 0 -5 -4 -9 -9 -9 -21 0 -421 184 -421 194 0 2 -11 48 -25 104
-14 56 -25 106 -25 112 0 7 17 -2 38 -18 20 -16 91 -71 157 -122z m-2644 8
c40 -51 103 -130 141 -175 38 -46 66 -83 63 -83 -3 0 -56 34 -119 76 l-114 76
-25 99 c-13 54 -23 99 -22 99 2 0 36 -42 76 -92z m2322 -161 c96 -50 125 -71
151 -107 34 -46 51 -90 36 -90 -10 0 -450 328 -450 335 0 2 33 -14 73 -35 39
-22 125 -68 190 -103z m6382 -4 c31 -46 31 -53 1 -53 -24 0 -36 21 -36 68 0
30 5 28 35 -15z m-4804 -197 l59 -88 0 -84 c0 -46 -2 -84 -5 -84 -10 0 -165
347 -165 371 0 25 57 -33 111 -115z m-3621 -64 c118 -79 226 -156 238 -170 13
-15 39 -59 57 -97 51 -109 180 -347 267 -489 49 -81 78 -139 78 -157 0 -16 -2
-29 -4 -29 -2 0 -59 26 -127 59 l-124 59 -125 152 c-124 150 -349 445 -424
554 -27 40 -48 90 -72 173 -19 65 -34 119 -34 121 0 4 -14 14 270 -176z
m-1192 79 c120 -111 333 -289 480 -400 l111 -85 47 -110 c158 -373 379 -781
617 -1141 43 -65 74 -121 69 -123 -6 -2 -42 13 -81 33 -39 19 -71 33 -71 31 0
-3 36 -24 81 -47 44 -23 85 -49 90 -58 5 -9 42 -86 83 -172 40 -85 110 -224
155 -308 46 -84 81 -154 79 -156 -2 -2 -100 41 -218 96 -118 55 -232 107 -252
116 -33 13 -48 32 -108 137 -78 133 -247 466 -300 588 -18 43 -35 76 -37 74
-6 -6 98 -250 192 -448 51 -109 89 -196 85 -193 -13 8 -245 275 -356 410 -155
190 -383 497 -516 696 l-116 174 -26 125 c-65 319 -134 850 -111 850 3 0 50
-40 103 -89z m3542 29 c41 -21 60 -36 60 -49 0 -10 3 -40 6 -67 l5 -49 -41 45
c-57 62 -100 120 -100 137 0 18 2 17 70 -17z m220 -105 c69 -32 130 -63 136
-69 13 -13 54 -136 54 -163 0 -13 -11 -7 -42 22 -36 33 -35 31 7 -13 27 -28
44 -52 37 -52 -12 0 -165 90 -239 142 -28 19 -43 37 -44 51 0 18 -2 19 -7 5
-12 -29 -31 -5 -42 51 -13 72 -13 94 3 88 6 -3 68 -31 137 -62z m-392 -149
c177 -127 190 -142 86 -109 -44 14 -68 32 -156 121 -57 57 -98 103 -93 101 6
-2 79 -53 163 -113z m-112 -33 c-1 -1 -12 0 -23 3 -13 4 -36 31 -58 68 l-35
61 59 -65 c33 -35 59 -66 57 -67z m-657 -388 l0 -30 -41 45 c-71 77 -288 340
-288 348 1 4 75 -69 165 -163 138 -143 164 -175 164 -200z m301 285 c17 -22
30 -40 28 -40 -2 0 -26 23 -53 51 -28 28 -40 46 -28 40 11 -6 35 -29 53 -51z
m-874 -88 c-9 -8 -26 10 -26 26 1 15 2 15 15 -2 8 -11 13 -21 11 -24z m-177
-242 c-1 -85 -11 -80 -93 48 -42 67 -80 130 -83 140 -4 9 34 -21 85 -68 82
-76 91 -89 91 -120z m1641 129 c48 -17 97 -41 108 -52 33 -37 60 -129 67 -223
5 -74 4 -86 -7 -71 -7 10 -21 28 -32 40 -19 23 -190 262 -221 310 -9 15 -14
27 -11 27 4 0 47 -14 96 -31z m-2732 -43 c43 -30 86 -69 96 -88 11 -18 52 -86
93 -151 40 -64 73 -120 73 -123 0 -3 7 -20 15 -37 8 -18 41 -102 73 -187 33
-85 76 -193 96 -239 20 -47 34 -86 32 -88 -4 -5 -86 113 -86 125 0 6 -4 12 -9
14 -14 5 -174 264 -274 443 -84 151 -197 368 -197 380 0 11 15 3 88 -49z
m3163 -96 c41 -12 81 -23 90 -26 11 -3 23 -28 33 -71 9 -36 15 -67 13 -70 -4
-4 -190 147 -227 185 -13 13 -13 14 1 9 9 -3 50 -15 90 -27z m202 -111 c17
-53 15 -125 -4 -113 -8 4 -59 159 -59 177 0 3 10 3 23 -2 15 -6 27 -24 40 -62z
m-1821 -222 c68 -53 102 -89 151 -160 35 -51 67 -98 71 -105 8 -13 -42 4 -271
95 l-141 56 -61 80 -61 80 0 104 0 104 113 -94 c61 -51 151 -123 199 -160z
m1739 26 l76 -63 -5 -112 c-2 -62 -6 -115 -8 -117 -2 -2 -25 7 -50 20 -46 23
-49 28 -145 224 -54 110 -101 213 -105 229 -7 27 0 23 77 -45 46 -41 118 -102
160 -136z m-1191 153 c15 -19 11 -20 -24 -6 -14 5 -26 17 -26 25 0 12 4 13 18
6 10 -5 24 -17 32 -25z m895 -115 c19 -46 34 -85 32 -87 -2 -2 -20 18 -40 45
-29 38 -37 57 -37 91 0 24 2 41 4 39 3 -3 21 -42 41 -88z m2368 -151 c-6 -6
-83 76 -83 89 0 5 20 -11 44 -37 25 -26 42 -49 39 -52z m-2865 -133 c34 -34
56 -65 63 -90 6 -22 8 -41 6 -43 -4 -4 -226 195 -261 235 -17 18 -8 16 60 -14
53 -24 96 -53 132 -88z m1027 -20 c36 -96 39 -126 11 -96 -22 22 -63 129 -69
178 -8 67 14 35 58 -82z m-2720 -78 c39 -42 119 -129 178 -192 89 -96 108
-121 105 -142 -3 -24 -13 -15 -109 97 -121 140 -329 397 -329 405 0 3 19 -16
43 -43 23 -27 74 -83 112 -125z m506 18 c36 -17 67 -47 139 -137 50 -63 139
-169 198 -234 58 -66 100 -116 92 -111 -23 14 -201 176 -352 319 -114 107
-138 135 -138 158 0 33 1 33 61 5z m-1760 -254 c307 -430 616 -790 1010 -1178
174 -171 254 -259 293 -324 8 -12 -12 -13 -120 -8 -125 5 -134 7 -304 65 -96
33 -214 74 -261 91 l-86 32 -48 87 c-143 256 -307 601 -425 897 -67 168 -183
495 -175 495 2 0 54 -71 116 -157z m2294 39 c55 -19 103 -38 107 -41 8 -8 51
-251 45 -257 -5 -6 -334 333 -348 358 -9 16 -4 16 43 -3 29 -12 98 -37 153
-57z m959 21 c17 -11 59 -83 52 -90 -3 -3 -8 2 -12 11 -3 9 -10 13 -15 11 -8
-5 -53 58 -67 93 -5 15 -4 15 12 0 9 -10 23 -21 30 -25z m-155 -322 c23 -30
41 -56 41 -59 0 -2 -15 9 -32 24 -71 59 -118 102 -118 107 0 3 16 1 34 -6 23
-8 49 -31 75 -66z m43 30 c4 -4 11 -22 14 -41 l7 -35 -24 30 c-57 70 -57 69
-29 60 14 -4 28 -10 32 -14z m-344 -132 c135 -130 282 -251 456 -377 107 -76
108 -78 143 -157 19 -44 43 -100 54 -123 l19 -44 -47 28 c-45 26 -308 201
-335 223 -7 6 -58 45 -113 87 -55 42 -133 104 -173 138 -78 66 -74 58 -112
221 -11 50 -23 98 -26 108 -3 9 -2 17 1 17 4 0 64 -55 133 -121z m404 104 c20
-23 91 -164 85 -169 -12 -12 -66 51 -84 98 -12 29 -24 61 -28 71 -4 9 -3 17 2
17 6 0 17 -8 25 -17z m-897 -551 c82 -74 79 -76 -25 -29 -56 25 -238 186 -437
388 -86 88 -93 98 -99 144 l-6 50 243 -241 c134 -132 280 -273 324 -312z
m-1134 351 c130 -176 286 -441 295 -498 8 -58 -8 -54 -52 13 -87 133 -354 612
-341 612 3 0 47 -57 98 -127z m-4766 -120 c410 -157 1317 -473 1360 -473 7 0
70 -66 141 -147 140 -160 426 -452 594 -607 69 -63 95 -93 78 -86 -149 53
-977 422 -1308 582 -102 49 -180 85 -175 80 40 -37 901 -465 1342 -667 95 -43
171 -80 169 -82 -3 -3 -315 121 -566 225 -366 152 -878 379 -1155 512 -82 40
-166 78 -185 86 -99 41 36 -31 408 -218 591 -297 1054 -510 1647 -758 266
-111 286 -121 400 -204 152 -111 149 -108 95 -100 -611 89 -1270 230 -1975
420 l-240 65 -43 47 c-309 340 -642 820 -880 1267 -124 233 -123 222 -15 178
48 -19 187 -73 308 -120z m7071 75 c46 -67 46 -68 31 -62 -13 5 -74 104 -64
104 2 0 17 -19 33 -42z m28 0 l27 -43 -30 35 c-27 32 -38 50 -27 50 2 0 15
-19 30 -42z m13776 -215 c75 -136 189 -323 307 -502 63 -95 113 -175 111 -176
-5 -5 -1462 -47 -1490 -43 -23 3 45 59 490 400 284 218 522 397 529 397 6 1
30 -34 53 -76z m-15059 -388 c65 -58 176 -150 246 -206 70 -56 129 -108 131
-115 5 -19 -68 -18 -115 1 -90 38 -408 332 -591 548 -73 85 -92 114 -92 138 0
30 7 24 152 -116 83 -80 204 -193 269 -250z m-767 10 c36 -58 54 -103 67 -164
10 -47 17 -86 16 -88 -10 -10 -371 314 -537 482 l-115 116 261 -133 260 -132
48 -81z m2099 85 c36 -100 41 -136 11 -95 -17 22 -124 230 -124 239 0 4 17 -4
38 -17 32 -21 42 -36 75 -127z m87 -28 l60 -93 -26 -11 c-20 -9 -28 -9 -39 3
-13 13 -85 184 -85 201 0 23 36 -17 90 -100z m-4245 88 c3 -6 -1 -7 -9 -4 -18
7 -21 14 -7 14 6 0 13 -4 16 -10z m3111 -56 c98 -45 157 -93 171 -139 6 -19 9
-35 6 -35 -7 0 -263 200 -263 205 0 8 7 6 86 -31z m-4196 -208 c162 -46 397
-109 522 -141 220 -56 227 -59 237 -87 6 -15 35 -88 65 -161 30 -72 56 -138
58 -145 2 -6 55 -116 119 -243 132 -262 135 -244 -34 -179 -80 31 -129 59
-227 131 -266 194 -513 397 -750 614 -173 159 -308 295 -294 295 5 0 142 -38
304 -84z m3385 -88 c4 -22 5 -42 2 -44 -8 -9 -54 77 -67 124 -6 24 -14 51 -17
60 -3 9 13 -10 35 -42 23 -33 44 -77 47 -98z m-1495 -65 c92 -35 130 -57 118
-68 -3 -3 -102 8 -219 25 -118 16 -215 30 -216 30 -3 0 -83 158 -83 164 0 2
69 -23 153 -56 83 -33 195 -76 247 -95z m-835 -113 c121 -27 306 -66 411 -86
l191 -37 27 -54 c14 -29 23 -53 21 -53 -3 0 -32 14 -65 30 -90 45 -86 36 5
-13 71 -38 83 -49 113 -102 136 -237 318 -523 427 -671 30 -40 55 -76 55 -79
0 -3 -57 -2 -127 1 l-128 7 -265 92 c-146 51 -317 112 -381 135 l-115 43 -94
161 c-93 159 -285 530 -328 635 l-22 53 28 -7 c15 -4 126 -29 247 -55z m4051
-135 c9 -14 14 -28 11 -31 -8 -9 -87 38 -81 48 11 18 54 7 70 -17z m-3166 -35
c101 -17 187 -33 191 -38 15 -15 159 -286 154 -290 -4 -4 -418 184 -480 218
-25 14 -102 120 -104 143 -1 5 11 6 27 3 15 -3 110 -19 212 -36z m3270 -26
l45 -46 -35 17 c-33 16 -69 51 -70 68 0 16 18 5 60 -39z m-2928 -165 c57 -83
107 -157 113 -164 13 -19 -1 -31 -19 -16 -8 7 -51 74 -97 149 -45 75 -88 147
-96 160 -7 12 -11 22 -9 22 3 0 51 -68 108 -151z m378 95 l165 -17 258 -118
c142 -65 280 -128 307 -140 48 -21 49 -22 86 -117 21 -54 59 -146 86 -207 26
-60 48 -110 48 -111 0 -1 -33 -7 -74 -13 l-74 -12 -189 76 c-103 42 -206 88
-227 103 -45 31 -512 494 -545 541 -12 17 -19 31 -14 31 4 0 82 -7 173 -16z
m2715 6 c3 -5 2 -10 -4 -10 -5 0 -13 5 -16 10 -3 6 -2 10 4 10 5 0 13 -4 16
-10z m-1162 -132 c72 -60 112 -99 97 -95 -14 4 -49 12 -78 18 -48 11 -60 20
-123 90 -66 73 -70 86 -31 88 7 1 67 -45 135 -101z m-2376 77 c11 -8 128 -68
259 -134 l239 -119 52 -88 c33 -58 54 -106 59 -138 l7 -49 -64 49 c-76 58
-228 182 -285 233 -22 20 -6 3 35 -38 42 -40 132 -120 201 -178 l124 -104 23
-92 c12 -51 22 -93 23 -94 0 -2 -36 -3 -80 -3 l-80 0 -93 118 c-129 162 -216
281 -334 457 -134 201 -143 220 -86 180z m1317 -17 c77 -24 110 -39 138 -66
21 -20 36 -37 34 -39 -4 -4 -316 124 -325 133 -15 14 67 -1 153 -28z m2877
-173 c60 -17 111 -45 81 -45 -24 0 -147 33 -159 43 -17 13 -17 31 0 24 7 -3
42 -13 78 -22z m-2119 -153 l23 -24 -24 7 c-49 15 -91 36 -91 44 0 5 -3 17 -7
27 -5 15 0 14 35 -6 23 -13 52 -35 64 -48z m-4687 -107 c671 -192 1420 -359
2045 -455 l145 -22 75 -112 c155 -229 391 -534 569 -735 42 -47 68 -82 59 -78
-25 9 -279 180 -388 260 -123 91 -271 210 -390 315 l-95 83 90 -86 c120 -116
352 -310 522 -437 76 -56 140 -105 143 -108 3 -3 59 -41 125 -84 96 -63 158
-117 305 -260 189 -185 317 -303 450 -416 41 -35 76 -67 78 -71 7 -17 -346 69
-588 143 -1026 314 -2246 1025 -3100 1810 -158 145 -356 337 -349 338 4 0 141
-38 304 -85z m3459 -146 c57 -79 99 -146 94 -148 -21 -8 -56 24 -122 112 -69
92 -87 125 -100 182 -7 27 -6 29 9 14 9 -8 62 -80 119 -160z m1286 121 c102
-43 139 -69 118 -81 -7 -3 -37 -12 -65 -19 -51 -12 -54 -11 -85 15 -31 25 -66
84 -67 113 -1 16 -8 18 99 -28z m1490 -150 l85 -20 -80 6 c-44 3 -92 13 -107
20 -34 18 -36 26 -5 19 12 -3 60 -14 107 -25z m-1011 -263 c43 -41 129 -117
190 -170 62 -54 107 -97 101 -97 -39 0 -163 82 -379 249 l-84 65 29 13 c16 7
37 12 47 13 9 0 53 -33 96 -73z m606 -10 c88 -32 90 -33 151 -112 34 -44 61
-81 59 -83 -2 -2 -59 37 -127 87 -126 92 -187 140 -178 140 3 1 45 -14 95 -32z
m-935 -22 l24 -25 -39 13 c-42 15 -59 37 -28 37 11 0 30 -11 43 -25z m2468
-61 c13 -20 22 -37 20 -38 -2 -1 -10 -7 -19 -14 -13 -9 -24 -3 -64 38 l-49 50
44 0 c41 0 47 -4 68 -36z m-2818 6 c12 -23 10 -24 -25 -8 -18 8 -22 14 -13 20
20 12 26 10 38 -12z m2408 -11 c7 -12 11 -23 8 -26 -5 -6 -116 36 -116 43 0 2
21 4 48 4 37 0 50 -4 60 -21z m-2443 -53 c69 -43 109 -76 129 -105 15 -23 26
-44 24 -46 -5 -5 -277 198 -278 208 -1 17 31 3 125 -57z m-1563 28 c87 -6 135
-15 224 -43 l113 -36 81 -94 c77 -89 106 -129 98 -136 -10 -10 -434 176 -613
269 -108 56 -109 57 -62 52 26 -3 97 -9 159 -12z m1249 -76 c49 -39 87 -74 84
-76 -8 -8 -89 47 -144 98 -82 75 -42 60 60 -22z m-391 37 c10 -12 10 -15 -3
-15 -8 0 -20 7 -27 15 -10 12 -10 15 3 15 8 0 20 -7 27 -15z m1259 -57 c91
-36 127 -58 285 -175 100 -74 186 -139 191 -145 35 -35 -246 67 -462 167 l-92
43 -40 81 c-23 44 -41 83 -41 86 0 5 5 3 159 -57z m1546 -58 c177 -58 192 -65
227 -104 20 -22 37 -44 38 -48 0 -4 -36 -26 -79 -48 l-79 -39 -84 71 c-45 39
-118 105 -160 147 -74 71 -94 99 -65 88 6 -2 97 -32 202 -67z m-4031 14 c6 -1
72 -35 146 -74 74 -40 220 -112 323 -161 163 -77 198 -98 268 -159 43 -39 148
-125 232 -192 149 -119 153 -123 200 -210 55 -102 63 -101 -93 -10 -337 197
-659 428 -955 686 -87 76 -90 78 -25 16 280 -265 657 -557 1007 -778 84 -52
152 -97 150 -98 -1 -1 -30 3 -63 10 -47 10 -83 28 -155 77 -330 225 -720 550
-974 810 -60 62 -102 106 -91 99 10 -8 23 -15 30 -16z m1128 -67 l108 -32 114
-130 c63 -71 113 -131 111 -133 -2 -2 -61 13 -132 34 -126 37 -129 39 -197
103 -61 59 -116 144 -116 181 0 12 -13 15 112 -23z m-1016 -158 c113 -119 264
-266 439 -428 90 -83 53 -59 -110 70 -60 48 -146 127 -191 176 -85 93 -259
295 -283 328 -14 19 -14 19 6 0 11 -11 74 -77 139 -146z m1975 -93 c48 -14
270 -165 295 -200 14 -20 13 -21 -17 -24 -26 -3 -51 12 -166 100 -177 135
-180 138 -167 138 6 0 31 -6 55 -14z m-1191 -103 l115 -45 38 -85 c22 -46 37
-86 35 -88 -4 -4 -271 197 -334 253 l-49 43 40 -17 c22 -9 92 -36 155 -61z
m472 -215 c139 -126 252 -224 371 -321 59 -49 107 -91 107 -94 0 -3 -26 -2
-57 2 -61 7 -105 28 -293 141 l-106 63 -72 139 c-40 77 -72 142 -72 146 0 22
42 -5 122 -76z m-640 -197 c26 -19 45 -38 42 -42 -3 -5 1 -9 9 -9 7 0 77 -45
156 -99 78 -54 168 -116 201 -137 33 -21 58 -39 56 -41 -2 -2 -74 29 -160 68
l-157 72 -162 153 c-220 206 -254 244 -132 148 55 -44 121 -94 147 -113z
m1178 39 c52 -47 143 -128 203 -178 131 -112 114 -126 -32 -25 -122 85 -404
298 -420 317 -9 11 7 9 71 -7 80 -20 86 -23 178 -107z m1322 -212 c-4 -3 -37
-9 -73 -13 l-66 -7 -74 82 c-41 44 -76 85 -77 91 -2 5 64 -25 146 -68 83 -43
147 -81 144 -85z m-1652 -14 c0 -2 -18 -4 -40 -4 -35 0 -42 4 -65 40 -14 22
-25 42 -25 44 0 3 29 -13 65 -35 36 -23 65 -43 65 -45z m-323 21 c22 -4 39
-17 53 -39 11 -19 20 -36 20 -40 0 -8 -109 60 -130 81 -13 13 -13 15 5 10 11
-3 34 -8 52 -12z m511 -133 c61 -36 112 -66 112 -68 0 -7 -213 86 -285 124
l-40 21 50 -6 c37 -4 80 -23 163 -71z m146 28 c29 -11 127 -82 122 -88 -2 -2
-48 19 -102 47 -74 37 -92 50 -72 50 15 1 38 -3 52 -9z m1599 -16 c34 -15 73
-31 87 -36 24 -9 21 -12 -50 -48 l-75 -38 -119 61 c-65 34 -115 62 -110 64 10
3 147 20 182 22 12 0 51 -11 85 -25z m-1158 -50 l40 -35 -52 32 c-29 18 -53
34 -53 35 0 13 31 -2 65 -32z m-637 -58 c170 -85 443 -206 625 -276 81 -31
150 -60 154 -64 37 -37 -389 62 -516 120 -31 14 -116 57 -189 96 -124 66 -137
76 -173 130 -22 32 -37 58 -34 58 3 0 63 -29 133 -64z m-427 -79 c74 -35 164
-76 201 -92 60 -25 74 -36 123 -101 30 -40 55 -76 55 -80 0 -4 -23 -4 -51 0
-43 6 -67 19 -153 83 -87 66 -282 220 -310 245 -19 16 3 7 135 -55z m2975 -66
c28 -15 162 -137 160 -145 -1 -5 -11 -13 -23 -17 -17 -6 -36 9 -114 87 -82 83
-90 94 -64 88 17 -4 35 -9 41 -13z m-187 -72 c40 -45 70 -83 68 -85 -4 -4
-227 79 -249 92 -7 4 86 68 108 74 1 0 34 -37 73 -81z m9791 56 c0 -13 -20
-21 -135 -52 -31 -8 -13 5 56 42 64 34 79 36 79 10z m-13749 -61 c435 -175
949 -314 1354 -365 l100 -13 145 -101 c80 -56 165 -115 189 -131 l45 -29 -65
-6 c-108 -11 -538 -10 -726 2 -157 10 -183 14 -227 36 -89 45 -317 184 -466
283 -198 132 -254 173 -510 377 -26 21 -8 15 161 -53z m5249 -58 c0 -2 3 -11
6 -20 8 -21 -6 -20 -36 4 l-25 20 28 0 c15 0 27 -2 27 -4z m349 -42 c4 -3 -64
-21 -98 -26 -16 -2 -28 5 -39 20 l-15 22 74 -6 c41 -4 76 -8 78 -10z m-810
-66 c22 -21 41 -40 41 -43 0 -3 -15 -5 -33 -5 -25 0 -42 9 -71 39 -35 36 -36
40 -20 49 22 12 28 9 83 -40z m-2355 -307 c139 -62 174 -81 155 -85 -26 -6
-188 -30 -312 -46 -76 -10 -80 -9 -125 17 -26 14 -78 60 -115 102 l-69 76 119
5 c65 4 129 7 143 8 14 1 106 -34 204 -77z m517 -210 c344 -127 826 -269 1144
-336 44 -9 163 -44 265 -76 102 -32 266 -81 365 -108 186 -50 546 -131 586
-131 15 0 20 -3 13 -10 -5 -5 -77 -22 -159 -37 -135 -24 -174 -26 -395 -27
-175 0 -287 5 -390 18 -578 70 -1145 247 -1751 547 -143 71 -259 132 -259 137
0 4 62 14 138 21 75 7 173 19 217 26 116 18 113 19 226 -24z m-1562 -30 c102
-6 273 -11 381 -11 l196 0 86 -54 c47 -30 119 -73 159 -96 41 -24 106 -71 144
-105 102 -89 215 -181 338 -274 60 -44 102 -81 95 -81 -25 0 -364 86 -528 134
-405 117 -855 293 -1207 470 -51 25 -93 48 -93 49 0 2 55 -2 123 -9 67 -7 205
-17 306 -23z m7375 -212 c22 -26 33 -49 23 -49 -2 0 -21 18 -42 40 -27 27 -34
40 -23 40 9 0 28 -14 42 -31z m-3697 -242 c51 -11 91 -22 89 -25 -5 -4 -298
47 -305 54 -11 10 124 -7 216 -29z m-1742 -233 c159 -56 163 -62 22 -39 -73
12 -109 25 -206 75 -160 84 -188 108 -66 58 55 -22 168 -65 250 -94z m3591
-134 l117 -40 106 -109 c58 -59 156 -154 216 -211 71 -65 101 -99 85 -95 -105
32 -609 269 -804 378 l-80 45 75 22 c41 11 92 27 114 35 54 18 41 20 171 -25z
m6781 34 c-3 -3 -12 -4 -19 -1 -8 3 -5 6 6 6 11 1 17 -2 13 -5z m-6277 -192
c80 -23 222 -60 315 -82 257 -61 528 -130 550 -139 16 -7 -5 -16 -95 -44 -200
-63 -380 -109 -403 -103 -26 6 -279 195 -430 320 -103 86 -121 104 -94 93 6
-2 77 -23 157 -45z m-1875 -53 c-272 -45 -775 -57 -1070 -25 -88 10 -162 20
-165 23 -3 3 74 1 170 -3 212 -10 787 -7 925 5 55 4 120 8 145 8 l45 1 -50 -9z
m7848 -289 c-39 -17 -161 -40 -216 -40 -84 0 130 53 238 58 11 1 1 -7 -22 -18z
m-4728 -89 l-27 -81 -87 0 c-122 0 -301 12 -301 20 0 3 51 21 113 39 61 18
159 50 217 71 58 20 107 36 109 34 1 -1 -9 -39 -24 -83z m-1787 23 c46 -20
110 -62 147 -97 15 -14 -102 46 -180 93 -73 43 -59 44 33 4z m3728 -223 c-6
-9 -56 -22 -56 -14 0 4 40 21 53 22 5 1 6 -3 3 -8z m-2919 -31 c93 -21 308
-77 333 -87 8 -3 -18 -14 -59 -24 l-75 -18 -108 44 c-59 25 -130 56 -158 70
-82 42 -66 45 67 15z m3382 -104 l164 -43 -58 -33 -58 -33 -86 28 c-47 15
-122 41 -166 58 l-80 31 55 17 c30 10 57 18 60 18 3 0 79 -19 169 -43z m-3856
-38 l142 -72 -44 -8 c-82 -14 -365 -38 -591 -49 -329 -16 -704 -1 -1050 42
-156 19 -169 23 -238 61 -40 22 -72 41 -70 43 2 2 68 -2 148 -7 176 -12 874
-4 1060 12 74 7 203 20 285 30 220 25 198 29 358 -52z m5708 -43 c-65 -29
-401 -128 -401 -119 0 2 37 23 83 46 64 32 109 46 202 63 146 27 159 28 116
10z m-7161 -85 c353 -51 627 -70 1017 -70 287 0 501 9 697 30 l88 9 132 -44
c146 -49 335 -98 441 -115 59 -10 104 -22 213 -56 23 -7 -142 -310 -194 -355
-19 -17 -208 -81 -409 -139 l-109 -32 -116 27 c-390 92 -834 243 -1255 428
-162 70 -605 288 -667 327 l-33 21 30 -5 c17 -3 91 -15 165 -26z m4794 -171
c-2 -4 -27 -9 -56 -12 -47 -4 -63 0 -138 35 -77 35 -83 41 -67 53 16 11 35 7
141 -29 68 -22 122 -44 120 -47z m2581 -61 c-81 -90 -142 -151 -165 -163 -30
-16 -277 -59 -455 -79 -222 -25 -306 -29 -375 -16 -93 18 -103 26 -50 40 25 6
99 26 165 45 66 19 173 42 238 50 64 8 150 22 190 30 83 18 393 100 428 114
46 19 54 12 24 -21z m-1320 -159 l40 -1 -32 -9 c-24 -7 -41 -5 -65 6 -26 12
-27 14 -8 10 14 -2 43 -5 65 -6z m-2480 -43 c66 -18 139 -37 162 -41 24 -4 45
-11 48 -15 9 -15 -163 -348 -182 -354 -35 -10 -290 -36 -428 -42 l-139 -7 29
35 c17 19 71 82 121 140 50 58 128 153 173 211 46 59 86 107 89 107 4 0 61
-15 127 -34z m2218 -2 c26 -9 45 -19 42 -24 -8 -14 -74 -21 -122 -14 l-47 7
30 23 c35 28 37 29 97 8z m-1383 -122 l145 -7 -143 -57 c-91 -37 -157 -58
-185 -59 -28 0 -36 -3 -23 -8 13 -5 -5 -14 -70 -34 -48 -14 -90 -25 -92 -23
-2 2 29 49 67 104 l71 100 42 -5 c24 -2 108 -7 188 -11z m705 -26 c22 -10 26
-15 15 -19 -22 -8 -174 -26 -179 -21 -6 5 100 53 119 53 8 0 29 -6 45 -13z
m2974 -12406 c6 -786 6 -1277 0 -1281 -10 -6 -5 -906 6 -1026 l7 -73 -87 -162
c-246 -459 -462 -761 -765 -1072 -260 -266 -435 -411 -1140 -941 -483 -363
-810 -615 -1055 -813 -82 -67 -153 -122 -157 -122 -9 0 -24 76 -40 191 -18
137 -15 503 6 684 72 630 288 1382 622 2165 71 168 222 482 274 570 11 19 48
98 81 175 119 275 308 622 494 905 289 439 612 839 1235 1530 446 494 505 559
507 552 1 -4 7 -581 12 -1282z m70 -10567 l1 -543 -27 -6 c-387 -88 -722 -193
-1082 -339 -228 -92 -398 -169 -875 -400 -565 -272 -704 -334 -966 -432 -725
-270 -1403 -327 -2240 -187 -85 14 -158 29 -163 33 -18 17 881 528 1498 851
817 426 1399 704 3780 1800 l60 28 6 -131 c4 -73 7 -376 8 -674z"/>
<path d="M38141 91424 c0 -11 3 -14 6 -6 3 7 2 16 -1 19 -3 4 -6 -2 -5 -13z"/>
<path d="M36596 90745 c-9 -26 -7 -32 5 -12 6 10 9 21 6 23 -2 3 -7 -2 -11
-11z"/>
<path d="M39851 90594 c0 -11 3 -14 6 -6 3 7 2 16 -1 19 -3 4 -6 -2 -5 -13z"/>
<path d="M40082 90535 c-17 -37 -14 -45 4 -12 9 16 14 31 11 33 -2 2 -9 -7
-15 -21z"/>
<path d="M39896 90225 c-9 -26 -7 -32 5 -12 6 10 9 21 6 23 -2 3 -7 -2 -11
-11z"/>
<path d="M39862 90145 c-17 -37 -14 -45 4 -12 9 16 14 31 11 33 -2 2 -9 -7
-15 -21z"/>
<path d="M36356 89635 c-9 -26 -7 -32 5 -12 6 10 9 21 6 23 -2 3 -7 -2 -11
-11z"/>
<path d="M38781 89804 c0 -11 3 -14 6 -6 3 7 2 16 -1 19 -3 4 -6 -2 -5 -13z"/>
<path d="M38752 89660 c0 -14 2 -19 5 -12 2 6 2 18 0 25 -3 6 -5 1 -5 -13z"/>
<path d="M38742 89610 c0 -14 2 -19 5 -12 2 6 2 18 0 25 -3 6 -5 1 -5 -13z"/>
<path d="M38981 89304 c0 -11 3 -14 6 -6 3 7 2 16 -1 19 -3 4 -6 -2 -5 -13z"/>
<path d="M38972 89250 c0 -14 2 -19 5 -12 2 6 2 18 0 25 -3 6 -5 1 -5 -13z"/>
<path d="M38962 89200 c0 -14 2 -19 5 -12 2 6 2 18 0 25 -3 6 -5 1 -5 -13z"/>
<path d="M35482 89470 c0 -14 2 -19 5 -12 2 6 2 18 0 25 -3 6 -5 1 -5 -13z"/>
<path d="M35471 89424 c0 -11 3 -14 6 -6 3 7 2 16 -1 19 -3 4 -6 -2 -5 -13z"/>
<path d="M35462 89380 c0 -14 2 -19 5 -12 2 6 2 18 0 25 -3 6 -5 1 -5 -13z"/>
<path d="M38333 88750 c0 -25 2 -35 4 -22 2 12 2 32 0 45 -2 12 -4 2 -4 -23z"/>
<path d="M38361 88584 c0 -11 3 -14 6 -6 3 7 2 16 -1 19 -3 4 -6 -2 -5 -13z"/>
<path d="M38563 89150 c0 -47 2 -66 4 -42 2 23 2 61 0 85 -2 23 -4 4 -4 -43z"/>
<path d="M39106 89125 c-9 -26 -7 -32 5 -12 6 10 9 21 6 23 -2 3 -7 -2 -11
-11z"/>
<path d="M38021 88774 c0 -11 3 -14 6 -6 3 7 2 16 -1 19 -3 4 -6 -2 -5 -13z"/>
<path d="M37996 88654 c-4 -20 -5 -38 -3 -40 3 -3 8 11 11 32 4 20 5 38 3 40
-3 3 -8 -11 -11 -32z"/>
<path d="M32702 88100 c0 -14 2 -19 5 -12 2 6 2 18 0 25 -3 6 -5 1 -5 -13z"/>
<path d="M32712 88010 c0 -19 2 -27 5 -17 2 9 2 25 0 35 -3 9 -5 1 -5 -18z"/>
<path d="M33035 87210 c10 -11 20 -20 23 -20 3 0 -3 9 -13 20 -10 11 -20 20
-23 20 -3 0 3 -9 13 -20z"/>
<path d="M39181 88974 c0 -11 3 -14 6 -6 3 7 2 16 -1 19 -3 4 -6 -2 -5 -13z"/>
<path d="M39171 88924 c0 -11 3 -14 6 -6 3 7 2 16 -1 19 -3 4 -6 -2 -5 -13z"/>
<path d="M35661 88594 c0 -11 3 -14 6 -6 3 7 2 16 -1 19 -3 4 -6 -2 -5 -13z"/>
<path d="M37801 88090 c0 -41 4 -84 8 -95 4 -11 6 18 4 65 -6 110 -11 125 -12
30z"/>
<path d="M38151 88424 c0 -11 3 -14 6 -6 3 7 2 16 -1 19 -3 4 -6 -2 -5 -13z"/>
<path d="M38202 88170 c0 -14 2 -19 5 -12 2 6 2 18 0 25 -3 6 -5 1 -5 -13z"/>
<path d="M37341 87994 c0 -11 3 -14 6 -6 3 7 2 16 -1 19 -3 4 -6 -2 -5 -13z"/>
<path d="M35083 87365 c0 -44 2 -61 4 -37 2 23 2 59 0 80 -2 20 -4 1 -4 -43z"/>
<path d="M31942 87055 c0 -16 2 -22 5 -12 2 9 2 23 0 30 -3 6 -5 -1 -5 -18z"/>
<path d="M31952 86965 c0 -16 2 -22 5 -12 2 9 2 23 0 30 -3 6 -5 -1 -5 -18z"/>
<path d="M35565 86410 c10 -11 20 -20 23 -20 3 0 -3 9 -13 20 -10 11 -20 20
-23 20 -3 0 3 -9 13 -20z"/>
<path d="M33890 86380 c6 -11 13 -20 16 -20 2 0 0 9 -6 20 -6 11 -13 20 -16
20 -2 0 0 -9 6 -20z"/>
<path d="M33920 86330 c6 -11 13 -20 16 -20 2 0 0 9 -6 20 -6 11 -13 20 -16
20 -2 0 0 -9 6 -20z"/>
<path d="M31680 84135 c0 -5 5 -17 10 -25 5 -8 10 -10 10 -5 0 6 -5 17 -10 25
-5 8 -10 11 -10 5z"/>
<path d="M31560 82078 c24 -27 45 -48 47 -48 8 0 0 9 -44 50 l-48 45 45 -47z"/>
<path d="M31370 81066 c0 -2 8 -10 18 -17 15 -13 16 -12 3 4 -13 16 -21 21
-21 13z"/>
<path d="M38211 93944 c0 -11 3 -14 6 -6 3 7 2 16 -1 19 -3 4 -6 -2 -5 -13z"/>
<path d="M36302 93770 c0 -14 2 -19 5 -12 2 6 2 18 0 25 -3 6 -5 1 -5 -13z"/>
<path d="M40161 93654 c0 -11 3 -14 6 -6 3 7 2 16 -1 19 -3 4 -6 -2 -5 -13z"/>
<path d="M32092 93535 c0 -16 2 -22 5 -12 2 9 2 23 0 30 -3 6 -5 -1 -5 -18z"/>
<path d="M37451 92914 c0 -11 3 -14 6 -6 3 7 2 16 -1 19 -3 4 -6 -2 -5 -13z"/>
<path d="M35541 92764 c0 -11 3 -14 6 -6 3 7 2 16 -1 19 -3 4 -6 -2 -5 -13z"/>
<path d="M35543 92705 c0 -22 2 -30 4 -17 2 12 2 30 0 40 -3 9 -5 -1 -4 -23z"/>
<path d="M39403 92585 c0 -22 2 -30 4 -17 2 12 2 30 0 40 -3 9 -5 -1 -4 -23z"/>
<path d="M40611 91624 c0 -11 3 -14 6 -6 3 7 2 16 -1 19 -3 4 -6 -2 -5 -13z"/>
<path d="M32816 91565 c-9 -26 -7 -32 5 -12 6 10 9 21 6 23 -2 3 -7 -2 -11
-11z"/>
<path d="M42300 91550 c-6 -11 -8 -20 -6 -20 3 0 10 9 16 20 6 11 8 20 6 20
-3 0 -10 -9 -16 -20z"/>
<path d="M32782 91485 c-17 -37 -14 -45 4 -12 9 16 14 31 11 33 -2 2 -9 -7
-15 -21z"/>
<path d="M36181 91144 c0 -11 3 -14 6 -6 3 7 2 16 -1 19 -3 4 -6 -2 -5 -13z"/>
<path d="M36796 91127 c3 -10 9 -15 12 -12 3 3 0 11 -7 18 -10 9 -11 8 -5 -6z"/>
<path d="M36161 91044 c0 -11 3 -14 6 -6 3 7 2 16 -1 19 -3 4 -6 -2 -5 -13z"/>
<path d="M36151 91004 c0 -11 3 -14 6 -6 3 7 2 16 -1 19 -3 4 -6 -2 -5 -13z"/>
<path d="M36142 90950 c0 -14 2 -19 5 -12 2 6 2 18 0 25 -3 6 -5 1 -5 -13z"/>
<path d="M36834 90848 l-19 -23 23 19 c21 18 27 26 19 26 -2 0 -12 -10 -23
-22z"/>
<path d="M36381 90644 c0 -11 3 -14 6 -6 3 7 2 16 -1 19 -3 4 -6 -2 -5 -13z"/>
<path d="M36371 90594 c0 -11 3 -14 6 -6 3 7 2 16 -1 19 -3 4 -6 -2 -5 -13z"/>
<path d="M36241 90504 c0 -11 3 -14 6 -6 3 7 2 16 -1 19 -3 4 -6 -2 -5 -13z"/>
<path d="M41525 90490 c-9 -16 -13 -30 -11 -30 3 0 12 14 21 30 9 17 13 30 11
30 -3 0 -12 -13 -21 -30z"/>
<path d="M32026 90465 c-9 -26 -7 -32 5 -12 6 10 9 21 6 23 -2 3 -7 -2 -11
-11z"/>
<path d="M36231 90454 c0 -11 3 -14 6 -6 3 7 2 16 -1 19 -3 4 -6 -2 -5 -13z"/>
<path d="M35511 90414 c0 -11 3 -14 6 -6 3 7 2 16 -1 19 -3 4 -6 -2 -5 -13z"/>
<path d="M35502 90370 c0 -14 2 -19 5 -12 2 6 2 18 0 25 -3 6 -5 1 -5 -13z"/>
<path d="M31253 90155 c0 -22 2 -30 4 -17 2 12 2 30 0 40 -3 9 -5 -1 -4 -23z"/>
<path d="M31253 90065 c0 -27 2 -38 4 -22 2 15 2 37 0 50 -2 12 -4 0 -4 -28z"/>
<path d="M40895 89788 l-40 -43 43 40 c39 36 47 45 39 45 -2 0 -21 -19 -42
-42z"/>
<path d="M31673 89705 c0 -22 2 -30 4 -17 2 12 2 30 0 40 -3 9 -5 -1 -4 -23z"/>
<path d="M35812 89655 c-17 -37 -14 -45 4 -12 9 16 14 31 11 33 -2 2 -9 -7
-15 -21z"/>
<path d="M35621 89614 c0 -11 3 -14 6 -6 3 7 2 16 -1 19 -3 4 -6 -2 -5 -13z"/>
<path d="M39121 89614 c0 -11 3 -14 6 -6 3 7 2 16 -1 19 -3 4 -6 -2 -5 -13z"/>
<path d="M31361 89534 c0 -11 3 -14 6 -6 3 7 2 16 -1 19 -3 4 -6 -2 -5 -13z"/>
<path d="M31381 89464 c0 -11 3 -14 6 -6 3 7 2 16 -1 19 -3 4 -6 -2 -5 -13z"/>
<path d="M35042 89380 c0 -19 2 -27 5 -17 2 9 2 25 0 35 -3 9 -5 1 -5 -18z"/>
<path d="M34751 89384 c0 -11 3 -14 6 -6 3 7 2 16 -1 19 -3 4 -6 -2 -5 -13z"/>
<path d="M31553 89280 c0 -41 2 -58 4 -37 2 20 2 54 0 75 -2 20 -4 3 -4 -38z"/>
<path d="M34741 89334 c0 -11 3 -14 6 -6 3 7 2 16 -1 19 -3 4 -6 -2 -5 -13z"/>
<path d="M34732 89290 c0 -14 2 -19 5 -12 2 6 2 18 0 25 -3 6 -5 1 -5 -13z"/>
<path d="M35041 89284 c0 -11 3 -14 6 -6 3 7 2 16 -1 19 -3 4 -6 -2 -5 -13z"/>
<path d="M30494 89035 c0 -49 1 -71 3 -48 2 23 2 64 0 90 -2 26 -3 8 -3 -42z"/>
<path d="M30643 89080 c0 -25 2 -35 4 -22 2 12 2 32 0 45 -2 12 -4 2 -4 -23z"/>
<path d="M34468 88965 c-6 -13 -15 -22 -19 -19 -5 3 -9 0 -9 -5 0 -21 20 -10
35 19 9 17 13 30 10 30 -3 0 -10 -11 -17 -25z"/>
<path d="M30913 88640 c0 -25 2 -35 4 -22 2 12 2 32 0 45 -2 12 -4 2 -4 -23z"/>
<path d="M30435 88540 c10 -11 20 -20 23 -20 3 0 -3 9 -13 20 -10 11 -20 20
-23 20 -3 0 3 -9 13 -20z"/>
<path d="M30782 88465 c0 -16 2 -22 5 -12 2 9 2 23 0 30 -3 6 -5 -1 -5 -18z"/>
<path d="M34283 88275 c0 -33 2 -45 4 -27 2 18 2 45 0 60 -2 15 -4 0 -4 -33z"/>
<path d="M34443 88140 c0 -41 2 -58 4 -37 2 20 2 54 0 75 -2 20 -4 3 -4 -38z"/>
<path d="M29882 88110 c0 -19 2 -27 5 -17 2 9 2 25 0 35 -3 9 -5 1 -5 -18z"/>
<path d="M29883 88005 c0 -27 2 -38 4 -22 2 15 2 37 0 50 -2 12 -4 0 -4 -28z"/>
<path d="M33740 87990 c-6 -11 -8 -20 -6 -20 3 0 10 9 16 20 6 11 8 20 6 20
-3 0 -10 -9 -16 -20z"/>
<path d="M33700 87920 c-11 -22 -18 -40 -15 -40 2 0 14 18 25 40 11 22 18 40
15 40 -2 0 -14 -18 -25 -40z"/>
<path d="M34411 87644 c0 -11 3 -14 6 -6 3 7 2 16 -1 19 -3 4 -6 -2 -5 -13z"/>
<path d="M34580 87487 l5 -82 3 74 c2 41 -1 78 -5 82 -4 4 -6 -29 -3 -74z"/>
<path d="M34630 87451 c0 -6 4 -13 10 -16 6 -3 7 1 4 9 -7 18 -14 21 -14 7z"/>
<path d="M34660 87400 c6 -11 13 -20 16 -20 2 0 0 9 -6 20 -6 11 -13 20 -16
20 -2 0 0 -9 6 -20z"/>
<path d="M30491 85004 c0 -11 3 -14 6 -6 3 7 2 16 -1 19 -3 4 -6 -2 -5 -13z"/>
<path d="M27880 84945 c0 -5 5 -17 10 -25 5 -8 10 -10 10 -5 0 6 -5 17 -10 25
-5 8 -10 11 -10 5z"/>
<path d="M27900 84895 c0 -5 5 -17 10 -25 5 -8 10 -10 10 -5 0 6 -5 17 -10 25
-5 8 -10 11 -10 5z"/>
<path d="M57442 82765 l-983 -765 -79 0 -80 0 0 -82 c0 -46 -5 -553 -10 -1128
-16 -1686 -55 -6417 -80 -9760 -6 -756 -15 -2140 -20 -3075 -5 -935 -14 -1945
-20 -2245 -43 -2388 -99 -4978 -173 -8095 l-22 -920 87 -3309 c48 -1820 89
-3310 90 -3311 3 -2 6430 62 6436 64 1 1 2 14 2 30 0 27 3 29 48 33 42 3 147
66 1060 638 l1014 635 -219 3 c-263 4 -5957 38 -5961 37 -1 -1 32 -82 74 -181
151 -354 371 -911 363 -918 -5 -6 -2508 -30 -2513 -25 -2 2 -38 1302 -80 2889
-41 1587 -77 2927 -79 2978 -3 51 -1 90 3 85 11 -12 545 -1101 710 -1449 193
-404 296 -630 475 -1034 84 -190 299 -671 478 -1070 178 -399 343 -769 367
-822 37 -85 44 -95 60 -86 16 10 17 297 23 5162 4 2833 9 9766 12 15406 3
5640 8 10441 11 10668 3 226 2 412 -3 412 -4 0 -450 -345 -991 -765z m-587
-4505 c944 -268 1177 -407 1375 -822 96 -201 130 -379 130 -671 0 -376 -77
-781 -270 -1422 -106 -350 -233 -725 -509 -1498 -396 -1110 -740 -2174 -1002
-3102 l-54 -190 -3 130 c-2 72 1 769 7 1550 46 5916 48 6105 65 6099 6 -2 124
-35 261 -74z"/>
<path d="M30910 83125 c0 -5 5 -17 10 -25 5 -8 10 -10 10 -5 0 6 -5 17 -10 25
-5 8 -10 11 -10 5z"/>
<path d="M31508 79123 c7 -3 16 -2 19 1 4 3 -2 6 -13 5 -11 0 -14 -3 -6 -6z"/>
<path d="M31548 79113 c7 -3 16 -2 19 1 4 3 -2 6 -13 5 -11 0 -14 -3 -6 -6z"/>
<path d="M45472 78588 c-12 -18 -20 -34 -18 -35 2 -2 24 5 50 16 53 23 62 51
17 51 -22 0 -34 -8 -49 -32z"/>
<path d="M46895 78385 c-143 -160 -412 -390 -641 -548 -112 -78 -119 -85 -133
-131 -14 -43 -29 -62 -118 -140 -56 -50 -101 -92 -99 -93 6 -7 265 41 396 73
169 42 328 93 495 159 66 26 121 49 122 50 5 3 53 412 58 498 4 50 3 119 -2
151 l-8 59 -70 -78z"/>
<path d="M33540 78226 c0 -3 9 -10 20 -16 11 -6 20 -8 20 -6 0 3 -9 10 -20 16
-11 6 -20 8 -20 6z"/>
<path d="M36548 77143 c7 -3 16 -2 19 1 4 3 -2 6 -13 5 -11 0 -14 -3 -6 -6z"/>
<path d="M36588 77133 c7 -3 16 -2 19 1 4 3 -2 6 -13 5 -11 0 -14 -3 -6 -6z"/>
<path d="M46635 76553 c-390 -197 -795 -315 -1210 -354 -66 -6 -131 -13 -144
-15 l-24 -5 7 -882 c3 -485 11 -1768 17 -2852 6 -1083 12 -1971 13 -1973 5 -5
163 361 249 578 204 516 234 634 472 1850 150 767 204 1026 272 1290 86 339
99 391 148 630 82 399 323 1776 312 1786 -1 1 -51 -23 -112 -53z"/>
<path d="M35808 76103 c7 -3 16 -2 19 1 4 3 -2 6 -13 5 -11 0 -14 -3 -6 -6z"/>
<path d="M35848 76093 c7 -3 16 -2 19 1 4 3 -2 6 -13 5 -11 0 -14 -3 -6 -6z"/>
<path d="M34428 74883 c7 -3 16 -2 19 1 4 3 -2 6 -13 5 -11 0 -14 -3 -6 -6z"/>
<path d="M34488 74873 c6 -2 18 -2 25 0 6 3 1 5 -13 5 -14 0 -19 -2 -12 -5z"/>
<path d="M34553 74863 c9 -2 25 -2 35 0 9 3 1 5 -18 5 -19 0 -27 -2 -17 -5z"/>
<path d="M33688 73843 c6 -2 18 -2 25 0 6 3 1 5 -13 5 -14 0 -19 -2 -12 -5z"/>
<path d="M33753 73833 c9 -2 23 -2 30 0 6 3 -1 5 -18 5 -16 0 -22 -2 -12 -5z"/>
<path d="M64210 50430 l-1275 -798 -7 -484 c-5 -416 -14 -844 -43 -2143 -32
-1425 -156 -4453 -211 -5164 l-7 -83 149 99 c82 55 719 479 1417 942 l1267
843 0 3794 c0 2087 -3 3794 -7 3793 -5 0 -582 -360 -1283 -799z"/>
<path d="M46000 39985 l0 -365 8455 0 8455 0 0 365 0 365 -8455 0 -8455 0 0
-365z m10200 0 l0 -205 -1745 0 -1745 0 0 205 0 205 1745 0 1745 0 0 -205z"/>
<path d="M50076 36334 c-587 -1141 -1067 -2076 -1065 -2078 11 -9 330 -96 338
-92 4 3 201 381 437 840 l429 836 914 -3 915 -2 420 -832 c232 -458 424 -835
428 -838 5 -6 337 91 347 100 4 5 -2082 4145 -2089 4145 -3 0 -486 -934 -1074
-2076z m1429 586 c201 -401 365 -732 365 -735 0 -3 -331 -5 -735 -5 -404 0
-735 2 -735 5 0 10 730 1465 735 1465 3 0 169 -328 370 -730z"/>
<path d="M58960 38369 c-220 -25 -495 -103 -680 -192 -669 -322 -1122 -974
-1201 -1727 -24 -229 4 -543 67 -765 221 -772 801 -1341 1549 -1518 239 -57
558 -74 799 -42 179 24 488 111 522 148 6 7 23 95 38 197 16 102 30 195 33
207 5 21 -7 17 -128 -41 -313 -149 -580 -201 -894 -176 -263 21 -459 75 -675
186 -382 196 -710 569 -848 965 -112 319 -133 721 -56 1068 35 156 74 263 150
412 204 397 588 724 1005 857 349 112 762 116 1082 11 94 -31 240 -97 315
-144 52 -32 51 -50 4 215 l-37 205 -80 28 c-122 43 -297 85 -428 102 -127 16
-410 18 -537 4z"/>
<path d="M53430 36240 l0 -2121 35 7 c19 3 99 20 177 38 l143 31 3 1613 c1
886 5 1612 10 1612 4 -1 626 -742 1382 -1648 l1375 -1648 3 2115 c1 1163 0
2116 -2 2118 -4 4 -295 -51 -338 -63 -17 -5 -18 -93 -20 -1614 l-3 -1609
-1379 1645 c-759 904 -1381 1644 -1383 1644 -2 0 -3 -954 -3 -2120z"/>
<path d="M46070 36244 l0 -2046 568 5 c625 4 690 9 970 78 613 150 1084 512
1327 1022 145 303 202 607 192 1015 -7 292 -43 487 -132 728 -197 527 -617
926 -1168 1109 -313 104 -616 135 -1329 135 l-428 0 0 -2046z m1200 1692 c435
-61 792 -232 1055 -508 297 -311 435 -685 435 -1183 0 -527 -156 -921 -491
-1240 -262 -249 -592 -396 -1024 -456 -44 -6 -245 -13 -447 -16 l-368 -5 0
1717 0 1718 363 -6 c248 -4 398 -11 477 -21z"/>
<path d="M60650 36245 l0 -2045 1140 0 c627 0 1140 2 1140 4 0 3 16 74 35 157
19 84 35 159 35 166 0 10 -186 13 -997 15 l-998 3 -3 788 -2 787 815 0 815 0
0 170 0 170 -815 0 -815 0 0 745 0 745 960 0 c528 0 960 2 960 5 0 3 -19 80
-41 170 l-41 165 -1094 0 -1094 0 0 -2045z"/>
<path d="M46000 32460 l0 -360 8455 0 8455 0 0 360 0 360 -8455 0 -8455 0 0
-360z m10200 0 l0 -210 -1745 0 -1745 0 0 210 0 210 1745 0 1745 0 0 -210z"/>
</g>
</svg>
